<svg xmlns="http://www.w3.org/2000/svg" xmlns:xlink="http://www.w3.org/1999/xlink" width="24" height="24" viewBox="0 0 24 24">
  <defs>
    <clipPath id="clip-path">
      <rect id="Rectangle_204" data-name="Rectangle 204" width="24" height="24" transform="translate(182.4 337.8)" fill="#5b5b5b" stroke="#e0e1e3" stroke-width="1.2"/>
    </clipPath>
  </defs>
  <g id="arba3on-icon" transform="translate(-182.4 -337.8)" clip-path="url(#clip-path)">
    <g id="_40-01-01" data-name="40-01-01" transform="translate(176.93 335.525)">
      <path id="Path_291" data-name="Path 291" d="M17.47,26.275,13.955,22.76H8.984V17.789L5.47,14.275,8.984,10.76V5.79h4.97l3.515-3.515L20.984,5.79h4.97v4.97l3.514,3.514-3.514,3.515v4.97h-4.97ZM10.44,21.3h4.118l2.912,2.912L20.382,21.3H24.5V17.186l2.912-2.912L24.5,11.363V7.246h-4.12L17.47,4.334,14.558,7.246H10.44v4.118L7.528,14.276l2.912,2.911Z" fill="#2e8572"/>
      <path id="Path_292" data-name="Path 292" d="M13,16.13Z" transform="translate(-2.98 1.329)" fill="#2bb673"/>
      <path id="Path_293" data-name="Path 293" d="M15.078,14.785l.97-.985c.172-.172.256-.307.256-.4a.705.705,0,0,0-.083-.32l-.245-.48a.873.873,0,0,1-.12-.323.71.71,0,0,1,.029-.209c-.051.048-.1.1-.16.146a1.813,1.813,0,0,0-.151.151.891.891,0,0,0-.115.161.36.36,0,0,0-.046.17.8.8,0,0,0,.126.37l.167.3a.563.563,0,0,1,.089.259.311.311,0,0,1-.1.214l-.534.545c-.1.1-.167.155-.2.155s-.116-.06-.24-.18l-.733-.725c-.1-.1-.152-.175-.152-.23a.285.285,0,0,1,.02-.087,1.084,1.084,0,0,1,.07-.143l.123-.22-.5.487a.353.353,0,0,0-.134.24c0,.044.06.123.172.235l.887.88a.46.46,0,0,0,.3.157.431.431,0,0,0,.307-.161Z" transform="translate(-2.691 -1.487)" fill="#fbb040"/>
      <path id="Path_294" data-name="Path 294" d="M14.133,12.7a.625.625,0,0,1,.267.206.752.752,0,0,0,.139-.285.148.148,0,0,0-.032-.084c-.022-.029-.046-.06-.07-.091s-.049-.064-.072-.1a.184.184,0,0,1-.037-.1c-.209.17-.313.275-.313.319S14.054,12.671,14.133,12.7Z" transform="translate(-2.275 -1.357)" fill="#fbb040"/>
      <path id="Path_295" data-name="Path 295" d="M15.285,15.12a.859.859,0,0,0,.628-.24l1.058-1.034h.743a.48.48,0,0,0,.3-.184l.2-.2.107.208a.287.287,0,0,0,.27.172h.938a.25.25,0,0,1,.141.06,1,1,0,0,1,.157.144,1.173,1.173,0,0,1,.133.18.605.605,0,0,1,.074.169L20.442,14a1.585,1.585,0,0,0,.116-.12.41.41,0,0,0,.066-.091.29.29,0,0,0,.028-.086.628.628,0,0,0,.007-.1.914.914,0,0,0-.115-.344l-.176-.353a.881.881,0,0,1-.115-.326.738.738,0,0,1,.037-.209l-.331.319a.458.458,0,0,0-.131.31,1.112,1.112,0,0,0,.134.377l.12.24a.788.788,0,0,1,.089.233.212.212,0,0,1-.046.123l-.276-.284q-.227-.23-.325-.24h-.756a.2.2,0,0,1-.184-.12l-.075-.158.647-.644a.408.408,0,0,0,.112-.267V12c-.06.089-.12.134-.18.134h-.834a.429.429,0,0,0-.317.1l-.54.54H17.6a.723.723,0,0,1,.134.01.272.272,0,0,1,.1.04.327.327,0,0,1,.08.084,1.6,1.6,0,0,1,.083.144l.109.2-.08.078a.331.331,0,0,1-.219.12h-.638a.48.48,0,0,0,0-.053,1.133,1.133,0,0,0-.141-.425l-.176-.353a1.07,1.07,0,0,1-.142-.412.66.66,0,0,1,.023-.176l-.956.96a.41.41,0,0,0-.15.267.566.566,0,0,0,0,.077.18.18,0,0,0,.02.06.377.377,0,0,0,.047.064c.02.023.049.052.087.088l.4.394c.082.081.123.139.123.176s-.035.092-.106.161l-.46.451a1.98,1.98,0,0,1-.172.148,1.56,1.56,0,0,1-.158.107,1.2,1.2,0,0,1-.149.072,1.175,1.175,0,0,1-.141.046A.463.463,0,0,0,15.285,15.12Zm3.2-2.6c.055,0,.083.052.083.156a.285.285,0,0,1-.1.2l-.067.067-.211-.42Zm-1.991.24a.3.3,0,0,0,0,.041v.07a.248.248,0,0,0,.037.115l.225.425a.394.394,0,0,1,.053.172c0,.06-.055.135-.166.235a.083.083,0,0,1,0-.013v-.016a.439.439,0,0,0-.016-.087.672.672,0,0,0-.056-.124l-.2-.364a.42.42,0,0,1-.064-.2c0-.066.06-.154.184-.256Z" transform="translate(-1.508 -1.537)" fill="#fbb040"/>
      <path id="Path_296" data-name="Path 296" d="M18.1,13.543c-.025-.032-.049-.063-.072-.1a.184.184,0,0,1-.037-.1q-.313.254-.313.319c0,.053.038.1.12.128a.633.633,0,0,1,.267.206.75.75,0,0,0,.143-.277.149.149,0,0,0-.032-.085Z" transform="translate(0.265 -0.599)" fill="#fbb040"/>
      <path id="Path_297" data-name="Path 297" d="M18.737,14.684a1.6,1.6,0,0,1-.326.253,1.282,1.282,0,0,1-.3.12.465.465,0,0,0,.167.026.86.86,0,0,0,.628-.24l1.1-1.075a.592.592,0,0,0,.211-.414,1.133,1.133,0,0,0-.141-.425l-.176-.353a.869.869,0,0,1-.115-.326.769.769,0,0,1,.037-.208l-.331.317a.462.462,0,0,0-.131.31,1.112,1.112,0,0,0,.136.368l.12.24a1.784,1.784,0,0,1,.13.3c0,.088-.069.2-.208.334Z" transform="translate(0.565 -1.501)" fill="#fbb040"/>
      <path id="Path_298" data-name="Path 298" d="M20.558,12.743a.5.5,0,0,1-.123.368l.112.233a1.516,1.516,0,0,0,.3-.7V11.1q-.406.47-.592.47a2.048,2.048,0,0,1,.308.713Z" transform="translate(2.044 -2.158)" fill="#fbb040"/>
      <path id="Path_299" data-name="Path 299" d="M19.7,11.52a.24.24,0,0,1-.128.083.271.271,0,0,0,.109.02.319.319,0,0,0,.236-.083l.192-.186a.148.148,0,0,0,.04-.107.164.164,0,0,0-.054-.115l-.12-.112a.088.088,0,0,1-.035-.06.128.128,0,0,1,.032-.053l.069-.086c.031-.026.06-.049.082-.067a.713.713,0,0,1,.06-.04.918.918,0,0,0-.1-.008.342.342,0,0,0-.24.07l-.161.145a.154.154,0,0,0,0,.256l.1.1c.032.032.048.055.048.069a.164.164,0,0,1-.05.091Z" transform="translate(1.576 -2.431)" fill="#fbb040"/>
      <path id="Path_300" data-name="Path 300" d="M19.68,11.565a2.048,2.048,0,0,1,.308.713v.12a1.934,1.934,0,0,0,.23.578l.385.762a.845.845,0,0,1,.1.233c0,.064-.037.1-.112.1H20.46q-.136,0-.136-.08a1.371,1.371,0,0,1,.2-.217l-.12-.2-.219.2a.832.832,0,0,1-.436.24v.28q0,.168.326.169h1.084v-.169a1.11,1.11,0,0,0-.1-.5l-.507-1.009c-.116-.232-.184-.371-.2-.415a.873.873,0,0,1-.077-.334V11.1Q19.86,11.565,19.68,11.565Z" transform="translate(1.646 -2.156)" fill="#fbb040"/>
      <path id="Path_301" data-name="Path 301" d="M22.006,14.35q-.071-.019-.12-.035a1.169,1.169,0,0,1-.244-.106.562.562,0,0,1-.157-.136.468.468,0,0,1-.083-.18,1.046,1.046,0,0,1-.023-.236V11.095q-.382.47-.592.47a2.048,2.048,0,0,1,.308.713v1.676a.756.756,0,0,0,.034.244.32.32,0,0,0,.112.158.493.493,0,0,0,.21.086,1.763,1.763,0,0,0,.326.026c.224,0,.354-.023.394-.07C22.108,14.379,22.053,14.362,22.006,14.35Z" transform="translate(2.414 -2.159)" fill="#fbb040"/>
      <path id="Path_302" data-name="Path 302" d="M14.923,15.488a.184.184,0,0,1-.037-.1c-.209.17-.313.275-.313.319a.157.157,0,0,0,.12.128.625.625,0,0,1,.267.206.752.752,0,0,0,.139-.284.148.148,0,0,0-.032-.084c-.022-.029-.046-.06-.07-.091a.808.808,0,0,1-.074-.1Z" transform="translate(-1.889 0.816)" fill="#fbb040"/>
      <path id="Path_303" data-name="Path 303" d="M14.559,15.488a.175.175,0,0,1-.037-.1c-.209.17-.313.275-.313.319s.04.1.12.128a.625.625,0,0,1,.267.206.752.752,0,0,0,.139-.284.143.143,0,0,0-.032-.084c-.02-.029-.044-.06-.069-.091S14.58,15.521,14.559,15.488Z" transform="translate(-2.142 0.816)" fill="#fbb040"/>
      <path id="Path_304" data-name="Path 304" d="M16,17.455a1.054,1.054,0,0,1-.072-.1.175.175,0,0,1-.037-.1q-.313.254-.313.319c0,.053.04.1.12.128a.633.633,0,0,1,.267.206.75.75,0,0,0,.139-.283.146.146,0,0,0-.032-.085C16.052,17.52,16.029,17.486,16,17.455Z" transform="translate(-1.19 2.11)" fill="#fbb040"/>
      <path id="Path_305" data-name="Path 305" d="M15.639,17.455c-.025-.032-.048-.063-.072-.1a.191.191,0,0,1-.037-.1q-.313.254-.313.319c0,.053.04.1.12.128a.636.636,0,0,1,.268.206.767.767,0,0,0,.139-.283.146.146,0,0,0-.032-.085A.964.964,0,0,1,15.639,17.455Z" transform="translate(-1.443 2.11)" fill="#fbb040"/>
      <path id="Path_306" data-name="Path 306" d="M16.952,16.852a.872.872,0,0,1-.115-.325.776.776,0,0,1,.037-.209l-.331.319a.457.457,0,0,0-.131.31,1.114,1.114,0,0,0,.136.37l.12.24a.773.773,0,0,1,.089.233.209.209,0,0,1-.046.12l-.276-.283q-.227-.23-.325-.24h-.394l-.36-.706a1.475,1.475,0,0,1-.187-.473.914.914,0,0,1,.06-.308l-.18.18-.153-.291-.364.342.161.307-.443.446a.457.457,0,0,0-.142.334.377.377,0,0,0,.017.1c.01.037.023.074.035.11l.037.1a.213.213,0,0,1,.016.068.443.443,0,0,1-.109.187H16.11a.254.254,0,0,1,.141.06,1.012,1.012,0,0,1,.157.145,1.248,1.248,0,0,1,.134.18.616.616,0,0,1,.073.169l.414-.394c.048-.046.088-.086.116-.12a.434.434,0,0,0,.066-.091.29.29,0,0,0,.028-.086.63.63,0,0,0,0-.1.917.917,0,0,0-.115-.345Zm-1.837.535H14.9l-.124-.244a.36.36,0,0,1-.048-.161.115.115,0,0,1,.026-.06.894.894,0,0,1,.056-.072.508.508,0,0,1,.06-.063l.029-.029a.635.635,0,0,0,.089.259l.184.364a.506.506,0,0,1-.06,0Z" transform="translate(-2.219 1.091)" fill="#fbb040"/>
      <path id="Path_307" data-name="Path 307" d="M17.718,16.481a1.064,1.064,0,0,1-.141-.412.66.66,0,0,1,.023-.176l-.96.96a.926.926,0,0,0-.1.123.274.274,0,0,0-.048.158.354.354,0,0,0,.006.071.157.157,0,0,0,.022.054.339.339,0,0,0,.046.06c.019.021.046.048.077.08l.412.406c.082.082.123.141.123.176s-.037.091-.107.161l-.465.448a1.855,1.855,0,0,1-.17.149,1.448,1.448,0,0,1-.16.106,1.024,1.024,0,0,1-.148.073,1.484,1.484,0,0,1-.142.046.463.463,0,0,0,.166.026.862.862,0,0,0,.629-.24l1.058-1.034a.568.568,0,0,0,.209-.385,1.183,1.183,0,0,0-.153-.493Zm-.209,1.21a.06.06,0,0,1,0-.013.1.1,0,0,0,0-.017.446.446,0,0,0-.017-.087.645.645,0,0,0-.056-.124l-.2-.364a.406.406,0,0,1-.064-.2c0-.071.06-.158.186-.262v.113a.248.248,0,0,0,.037.115l.225.425a.394.394,0,0,1,.053.172C17.675,17.513,17.62,17.592,17.509,17.691Z" transform="translate(-0.908 1.164)" fill="#fbb040"/>
      <path id="Path_308" data-name="Path 308" d="M19.02,15.771a.191.191,0,0,1-.037-.1q-.313.254-.313.319c0,.053.04.1.12.128a.627.627,0,0,1,.267.206.75.75,0,0,0,.143-.282.149.149,0,0,0-.032-.085c-.022-.029-.044-.06-.07-.091S19.045,15.8,19.02,15.771Z" transform="translate(0.95 1.012)" fill="#fbb040"/>
      <path id="Path_309" data-name="Path 309" d="M21.71,18.088a.24.24,0,0,1-.043-.107,1.03,1.03,0,0,1-.012-.173v-2.83q-.406.47-.592.47a2.048,2.048,0,0,1,.308.713v1.62a.131.131,0,0,1-.013.06.208.208,0,0,1-.037.052.2.2,0,0,1-.049.038.1.1,0,0,1-.051.015h-.558a.592.592,0,0,0-.032-.073l-.05-.106-.173-.353a.862.862,0,0,1-.115-.325.776.776,0,0,1,.037-.209L20,17.2a.462.462,0,0,0-.131.31,1.1,1.1,0,0,0,.137.37l.12.24a.788.788,0,0,1,.088.233.2.2,0,0,1-.046.12l-.275-.283c-.153-.154-.261-.233-.326-.24h-.3a.272.272,0,0,0,0-.053,1.121,1.121,0,0,0-.142-.425l-.176-.353a1.07,1.07,0,0,1-.142-.412.663.663,0,0,1,.025-.176l-.96.96a.414.414,0,0,0-.15.267.749.749,0,0,0,0,.076.167.167,0,0,0,.02.06.368.368,0,0,0,.046.065c.02.023.049.052.087.088l.4.394c.082.081.12.139.12.176s-.035.091-.106.161l-.465.448a2,2,0,0,1-.17.149,1.449,1.449,0,0,1-.16.106,1.025,1.025,0,0,1-.148.073,1.484,1.484,0,0,1-.142.046.463.463,0,0,0,.166.026.857.857,0,0,0,.628-.24l1.058-1.034h.5a.254.254,0,0,1,.142.06,1.007,1.007,0,0,1,.156.145,1.182,1.182,0,0,1,.134.18.592.592,0,0,1,.074.169l.414-.394q.053-.05.092-.092a.609.609,0,0,0,.06-.071h.986a.412.412,0,0,0,.323-.147,1.275,1.275,0,0,1-.144-.048.2.2,0,0,1-.087-.064Zm-2.971.24a.06.06,0,0,1,0-.013.1.1,0,0,0,0-.017.438.438,0,0,0-.016-.087.644.644,0,0,0-.056-.124l-.2-.364a.42.42,0,0,1-.064-.2c0-.071.063-.158.187-.262a.3.3,0,0,0,0,.041v.071a.24.24,0,0,0,.037.115l.224.425a.38.38,0,0,1,.054.172c0,.06-.06.14-.17.24Z" transform="translate(-0.061 0.53)" fill="#fbb040"/>
      <path id="Path_310" data-name="Path 310" d="M21.187,18.2a1.169,1.169,0,0,1-.244-.106.543.543,0,0,1-.156-.136.468.468,0,0,1-.083-.18.986.986,0,0,1-.025-.236V14.975q-.382.47-.592.47a2.048,2.048,0,0,1,.308.713v1.676a.788.788,0,0,0,.032.244.326.326,0,0,0,.112.158.5.5,0,0,0,.21.086,1.774,1.774,0,0,0,.326.026c.225,0,.355-.023.394-.07-.06-.02-.115-.035-.161-.048A.847.847,0,0,1,21.187,18.2Z" transform="translate(1.931 0.529)" fill="#fbb040"/>
    </g>
  </g>
</svg>
