<svg xmlns="http://www.w3.org/2000/svg" xmlns:xlink="http://www.w3.org/1999/xlink" width="24" height="24" viewBox="0 0 24 24">
  <defs>
    <clipPath id="clip-path">
      <rect id="Rectangle_204" data-name="Rectangle 204" width="24" height="24" transform="translate(178.2 306.6)" fill="#5b5b5b" stroke="#e0e1e3" stroke-width="1.2"/>
    </clipPath>
  </defs>
  <g id="atfal-icon" transform="translate(-178.2 -306.6)" clip-path="url(#clip-path)">
    <g id="video-01" transform="translate(161.804 294.842)">
      <path id="Path_311" data-name="Path 311" d="M17.095,25.544c.278-.081-.007,3.023-.007,2.661,0-2.741.018-8.835.01-11.58,0-.317.04-.4.284-.4q10.343.016,20.684.008c.385,0,2.623-.033,2.612-.06h0c.081.48-.013-.018,0,0,0,4.108-.027,8.633-.028,12.746l-1.395-.01q-10.937,0-21.872.01c-.24,0-.3-.083-.289-.4.022-.351,0-.708.008-1.06s.249-.633-.014-.729Z" transform="translate(-0.691 -4.376)" fill="#d4ab75"/>
      <path id="Path_312" data-name="Path 312" d="M40.38,25.344a.522.522,0,0,1-.515.237H16.9c-.394,0-.5-.109-.5-.5V23.867c0-.309.067-.389.369-.472a.42.42,0,0,1,.335.486c-.011.253.014.485-.007.725-.019.222.041.277.277.277q10.49-.011,20.978-.007c.086,0,.172,0,.257-.007.277,0,.562-.008.84.011.194.014.24-.043.24-.24-.007-2.6,0-5.194-.007-7.792,0-.208.092-.483-.041-.6-.113-.1-.385-.037-.586-.032a.646.646,0,0,1-.44-.12l-.077-.214a.509.509,0,0,1,.115-.29,1.894,1.894,0,0,1,.871-.08c.112-.007.165-.022.164-.153q-.007-1.376,0-2.752c0-.112-.038-.146-.148-.144-.311.007-.622.007-.932.008-.031,0-.06-.007-.092-.007q-10.609,0-21.217,0c-.18,0-.2.068-.2.217.007.859.012,1.718,0,2.575,0,.224.068.261.272.261q6.4-.008,12.81,0h7.067c.338,0,.428.07.487.373-.092.282-.162.328-.528.328q-9.92,0-19.84-.005c-.234,0-.277.064-.272.277.01,1.873,0,3.747.008,5.624,0,.247-.065.43-.332.485-.287-.06-.369-.154-.369-.443V12.207a.506.506,0,0,1,.237-.445h23.55c.16,0,.208.022.208.2Q40.38,18.653,40.38,25.344Z" fill="none"/>
      <path id="Path_313" data-name="Path 313" d="M40.38,34.523c-.108.074-.092.206-.139.308a1.511,1.511,0,0,1-1.394.9c-1.459.016-2.919.021-4.38,0A1.6,1.6,0,0,1,32.945,33.8a3.835,3.835,0,0,1,2.287-3.06,2.573,2.573,0,0,1-1.121-2.405,2.46,2.46,0,0,1,.92-1.7,2.558,2.558,0,0,1,3.54.277,2.59,2.59,0,0,1-.471,3.833c.184.1.369.194.54.305a3.694,3.694,0,0,1,1.7,2.545c.007.036,0,.08.048.092ZM36.738,31.18a2.935,2.935,0,0,0-2.22.88,4.726,4.726,0,0,0,1.027.488,3.258,3.258,0,0,0,2.544-.136,3.948,3.948,0,0,0,.724-.346,2.937,2.937,0,0,0-2.072-.887Zm-.2-4.411a1.7,1.7,0,0,0-.84.254,1.875,1.875,0,1,0,.843-.254Zm1.92,6.269c-.092.032-.18.06-.263.1a3.9,3.9,0,0,1-2.128.266,5.2,5.2,0,0,1-1.823-.691c-.133-.079-.193-.06-.263.079a3.092,3.092,0,0,0-.342,1.37.83.83,0,0,0,.821.871c1.291.008,2.573,0,3.86,0,.184,0,.373.014.56,0a.83.83,0,0,0,.795-.8,2.962,2.962,0,0,0-.36-1.48c-.065-.12-.124-.1-.218-.051-.211.12-.425.23-.638.342Z" fill="none"/>
      <path id="Path_314" data-name="Path 314" d="M21.562,30.751a3.749,3.749,0,0,1,2.164,2.507,2.215,2.215,0,0,1-.026,1.579,1.481,1.481,0,0,1-1.394.9c-1.451.014-2.9.019-4.354,0a1.583,1.583,0,0,1-1.535-1.92,3.7,3.7,0,0,1,2.16-3.008c.033-.017.064-.038.12-.069a2.57,2.57,0,0,1-1.12-2.34,2.443,2.443,0,0,1,.823-1.68,2.564,2.564,0,0,1,3.55.086,2.6,2.6,0,0,1-.388,3.945Zm-1.229.443a2.917,2.917,0,0,0-2.359.871c.174.092.323.18.476.254a3.42,3.42,0,0,0,3.1.092,4.369,4.369,0,0,0,.725-.349,2.91,2.91,0,0,0-1.946-.869Zm-.395-4.412a1.823,1.823,0,0,0-1.667,1.811,1.851,1.851,0,1,0,3.539-.751,1.8,1.8,0,0,0-1.873-1.06Zm1.986,6.259c-.092.032-.18.06-.263.1a3.9,3.9,0,0,1-2.128.266,5.182,5.182,0,0,1-1.823-.691c-.133-.079-.193-.06-.263.079a3.079,3.079,0,0,0-.341,1.37.83.83,0,0,0,.821.871c1.291.008,2.573,0,3.86,0,.184,0,.373.014.56,0a.83.83,0,0,0,.795-.8,2.966,2.966,0,0,0-.36-1.475c-.065-.12-.124-.1-.218-.052-.212.116-.426.223-.639.335Z" fill="none"/>
      <path id="Path_315" data-name="Path 315" d="M30.551,28.12c.331.067.42.191.4.536a2.564,2.564,0,0,1-1.06,2.017.737.737,0,0,1-.143.05,3.81,3.81,0,0,1,1.536,1.135,3.476,3.476,0,0,1,.812,2.423,1.489,1.489,0,0,1-1.484,1.453c-1.483.023-2.966.026-4.448,0A1.517,1.517,0,0,1,24.675,34.1a3.671,3.671,0,0,1,2.111-3.259c.053-.028.107-.052.184-.092a3.034,3.034,0,0,1-.761-.8,2.555,2.555,0,0,1,3.971-3.156c.229.229.24.343.065.61a.433.433,0,0,1-.564-.107,1.769,1.769,0,0,0-1.4-.517,1.84,1.84,0,0,0-.037,3.672,1.608,1.608,0,0,0,.162.015,1.853,1.853,0,0,0,1.835-1.9.412.412,0,0,1,.3-.438Zm-1.969,3.07a1.4,1.4,0,0,0-.625.013,2.923,2.923,0,0,0-1.7.861,3.618,3.618,0,0,0,3.591.345,4.26,4.26,0,0,0,.7-.344A2.89,2.89,0,0,0,28.582,31.19Zm1.5,3.84c.18,0,.36.016.54,0a.821.821,0,0,0,.78-.758,2.827,2.827,0,0,0-.352-1.525c-.053-.1-.1-.112-.2-.06-.223.127-.452.24-.679.36-.08.028-.163.051-.24.084a3.9,3.9,0,0,1-2.151.261,5.163,5.163,0,0,1-1.8-.687c-.134-.079-.191-.06-.262.079a3.01,3.01,0,0,0-.337,1.393.821.821,0,0,0,.817.848c1.292.012,2.586.005,3.88,0Z" fill="none"/>
      <path id="Path_319" data-name="Path 319" d="M36.592,30.442a1.823,1.823,0,0,1-1.726-1.38,1.86,1.86,0,0,1,.84-2.034,1.7,1.7,0,0,1,.84-.254.17.17,0,0,0,.077.112,2.191,2.191,0,0,1,.215,3.258C36.743,30.23,36.617,30.3,36.592,30.442Z" fill="#d3e06c"/>
      <path id="Path_320" data-name="Path 320" d="M38.09,32.413a3.258,3.258,0,0,1-2.544.133,4.725,4.725,0,0,1-1.027-.488,2.921,2.921,0,0,1,2.22-.88,3.381,3.381,0,0,1,1.349,1.237Z" fill="#d3e06c"/>
      <path id="Path_321" data-name="Path 321" d="M36.592,30.442c.026-.145.152-.212.244-.3a2.193,2.193,0,0,0-.215-3.258.17.17,0,0,1-.077-.112,1.844,1.844,0,0,1,1.909,2.305A1.818,1.818,0,0,1,36.592,30.442Z" fill="#e7df59"/>
      <path id="Path_322" data-name="Path 322" d="M38.09,32.413a3.381,3.381,0,0,0-1.349-1.232,2.924,2.924,0,0,1,2.072.887,3.948,3.948,0,0,1-.724.346Z" fill="#e7df59"/>
      <path id="Path_323" data-name="Path 323" d="M26.729,19.992v-1.1c.005-.646.469-.914,1.02-.59q.96.559,1.913,1.127a.619.619,0,0,1,0,1.156q-.964.572-1.936,1.14a.619.619,0,0,1-1-.56V19.992Zm2.532.014c-.586-.345-1.136-.667-1.684-.992-.134-.079-.14,0-.139.1V20.89c0,.124.019.184.154.1.54-.323,1.08-.641,1.669-.984Z" fill="none"/>
      <path id="Path_324" data-name="Path 324" d="M19.961,30.439A1.84,1.84,0,0,1,18.272,28.6a1.818,1.818,0,0,1,1.667-1.811,2.2,2.2,0,0,1,.022,3.655Z" fill="#e4b575"/>
      <path id="Path_325" data-name="Path 325" d="M21.555,32.415a3.439,3.439,0,0,1-3.1-.092c-.153-.074-.3-.16-.476-.254a2.908,2.908,0,0,1,2.359-.871c.031.083.115.1.18.14A2.64,2.64,0,0,1,21.555,32.415Z" fill="#e4b575"/>
      <path id="Path_326" data-name="Path 326" d="M19.961,30.439a2.2,2.2,0,0,0-.022-3.656,1.8,1.8,0,0,1,1.873,1.064,1.843,1.843,0,0,1-1.85,2.593Z" fill="#d19a4d"/>
      <path id="Path_327" data-name="Path 327" d="M21.613,32.41a2.722,2.722,0,0,0-1.093-1.076c-.065-.042-.154-.057-.185-.14a3.1,3.1,0,0,1,2.04.868,4.685,4.685,0,0,1-.761.348Z" transform="translate(-0.093)" fill="#d19a4d"/>
      <path id="Path_328" data-name="Path 328" d="M28.29,26.768a1.116,1.116,0,0,0,.307.346,2.213,2.213,0,0,1,.461,2.266,2.9,2.9,0,0,1-.8,1.061,1.84,1.84,0,0,1,.033-3.672Z" fill="#fdd458"/>
      <path id="Path_329" data-name="Path 329" d="M29.845,32.41a3.618,3.618,0,0,1-3.591-.345,2.923,2.923,0,0,1,1.7-.861,1.4,1.4,0,0,1,.625-.013,1.568,1.568,0,0,0,.127.092A3.488,3.488,0,0,1,29.845,32.41Z" fill="#fdd458"/>
      <path id="Path_330" data-name="Path 330" d="M38.325,35.035c-1.291,0-2.573.011-3.86,0a.83.83,0,0,1-.821-.871,3.092,3.092,0,0,1,.342-1.37c.07-.136.13-.157.263-.079a5.2,5.2,0,0,0,1.823.691A3.9,3.9,0,0,0,38.2,33.14c.086-.036.175-.065.263-.1.017.092.032.184.052.277a1.963,1.963,0,0,1-.189,1.715Z" fill="#2e8572"/>
      <path id="Path_331" data-name="Path 331" d="M38.325,35.035a1.925,1.925,0,0,0,.193-1.715c-.02-.092-.036-.184-.053-.277.217-.112.436-.222.652-.339.094-.053.156-.071.222.051a2.914,2.914,0,0,1,.368,1.48.84.84,0,0,1-.811.8C38.706,35.044,38.515,35.035,38.325,35.035Z" transform="translate(-0.028)" fill="#2e8572"/>
      <path id="Path_332" data-name="Path 332" d="M21.787,35.035c-1.291,0-2.573.011-3.86,0a.83.83,0,0,1-.821-.871,3.079,3.079,0,0,1,.341-1.37c.07-.136.13-.157.263-.079a5.182,5.182,0,0,0,1.823.691,3.9,3.9,0,0,0,2.128-.266c.086-.036.175-.065.263-.1.017.092.032.184.052.277A1.963,1.963,0,0,1,21.787,35.035Z" fill="#2e8572"/>
      <path id="Path_333" data-name="Path 333" d="M21.787,35.035a1.925,1.925,0,0,0,.193-1.715c-.02-.092-.036-.184-.053-.277.217-.112.436-.222.652-.339.094-.053.156-.071.222.052a2.917,2.917,0,0,1,.368,1.475.84.84,0,0,1-.811.8C22.168,35.044,21.977,35.035,21.787,35.035Z" transform="translate(-0.028)" fill="#2e8572"/>
      <path id="Path_334" data-name="Path 334" d="M30.079,35.03c-1.291,0-2.587.012-3.881,0a.821.821,0,0,1-.817-.848,3.01,3.01,0,0,1,.337-1.393c.071-.138.127-.158.262-.079a5.163,5.163,0,0,0,1.8.687,3.9,3.9,0,0,0,2.151-.261c.079-.033.161-.056.24-.084a5.256,5.256,0,0,1,.193.877,1.8,1.8,0,0,1-.283,1.1Z" fill="#2e8572"/>
      <path id="Path_335" data-name="Path 335" d="M30.079,35.03a1.765,1.765,0,0,0,.291-1.1,5.149,5.149,0,0,0-.2-.877c.232-.12.467-.235.695-.36.1-.055.148-.043.2.06a2.773,2.773,0,0,1,.36,1.525.832.832,0,0,1-.8.758C30.446,35.045,30.262,35.035,30.079,35.03Z" transform="translate(-0.032)" fill="#2e8572"/>
      <path id="Path_336" data-name="Path 336" d="M29.845,32.41a3.488,3.488,0,0,0-1.14-1.124,1.568,1.568,0,0,1-.127-.092,2.891,2.891,0,0,1,1.964.875,4.469,4.469,0,0,1-.7.341Z" fill="#fbba53"/>
      <path id="Path_337" data-name="Path 337" d="M23.476,13.944a1.053,1.053,0,1,1,.3.752A1.053,1.053,0,0,1,23.476,13.944Zm1.055-.323a.348.348,0,1,0,.322.219A.351.351,0,0,0,24.53,13.621Z" fill="none"/>
      <path id="Path_338" data-name="Path 338" d="M18.875,15.01a1.046,1.046,0,1,1,.754-.284,1.046,1.046,0,0,1-.754.284Zm.379-1.046a.349.349,0,1,0-.342.341A.349.349,0,0,0,19.255,13.964Z" fill="none"/>
      <path id="Path_339" data-name="Path 339" d="M21.749,12.92a1.045,1.045,0,1,1-.755.28,1.045,1.045,0,0,1,.755-.28Zm.317,1.043a.349.349,0,1,0-.34.345A.349.349,0,0,0,22.066,13.963Z" fill="none"/>
      <path id="Path_340" data-name="Path 340" d="M32.018,21.556c-1.466.864-2.834,1.663-4.194,2.473-.338.2-.389.06-.387-.253V19.314c0-.253,0-.449.35-.25C29.165,19.879,30.54,20.687,32.018,21.556Z" transform="translate(-1.277 -3.334)" fill="#fff"/>
      <path id="Path_344" data-name="Path 344" d="M19.961,30.439a2.2,2.2,0,0,0-.022-3.656,1.8,1.8,0,0,1,1.873,1.064,1.843,1.843,0,0,1-1.85,2.593Z" transform="translate(8.227)" fill="#fbba53"/>
    </g>
  </g>
</svg>
