<svg xmlns="http://www.w3.org/2000/svg" xmlns:xlink="http://www.w3.org/1999/xlink" width="24" height="24" viewBox="0 0 24 24">
  <defs>
    <clipPath id="clip-path">
      <rect id="Icon_Container" data-name="Icon Container" width="24" height="24" transform="translate(378 131)" fill="#6d6d6d"/>
    </clipPath>
    <filter id="Path_3074" x="3" y="-2.571" width="22.788" height="30.824" filterUnits="userSpaceOnUse">
      <feOffset dy="3" input="SourceAlpha"/>
      <feGaussianBlur stdDeviation="3" result="blur"/>
      <feFlood flood-opacity="0.161"/>
      <feComposite operator="in" in2="blur"/>
      <feComposite in="SourceGraphic"/>
    </filter>
  </defs>
  <g id="contact-icon" transform="translate(-378 -131)" clip-path="url(#clip-path)">
    <g id="letter" transform="translate(381.429 134.429)">
      <path id="Path_3071" data-name="Path 3071" d="M16.982,5.984V16.875H.375V5.984c4.675-3.4,2.8-2.031,8-5.885a.5.5,0,0,1,.3-.1.5.5,0,0,1,.156.025l.038.014.036.017.035.02L8.978.1c5.1,3.777,3.234,2.418,8,5.885Z" transform="translate(-0.107 0)" fill="#ff7d47"/>
      <path id="Path_3072" data-name="Path 3072" d="M20.3,5.984V16.875H12V0a.5.5,0,0,1,.156.025l.038.014.036.017.035.02L12.3.1C17.4,3.876,15.533,2.517,20.3,5.984Z" transform="translate(-3.429)" fill="#ff7d47"/>
      <path id="Path_3073" data-name="Path 3073" d="M14.873.5V12.321a.5.5,0,0,1-.5.5H5.8a.5.5,0,0,1-.5-.5V.5A.5.5,0,0,1,5.8,0h8.571A.5.5,0,0,1,14.873.5Z" transform="translate(-1.513)" fill="#e7edf7"/>
      <g transform="matrix(1, 0, 0, 1, -3.43, -3.43)" filter="url(#Path_3074)">
        <path id="Path_3074-2" data-name="Path 3074" d="M16.788.5V12.321a.5.5,0,0,1-.5.5H12V0h4.286A.5.5,0,0,1,16.788.5Z" transform="translate(0 3.43)" fill="#d3dff5"/>
      </g>
      <path id="Path_3075" data-name="Path 3075" d="M7.773,13.483.8,8.393A.5.5,0,0,0,0,8.8V19.011a.5.5,0,0,0,.8.4l6.974-5.122A.5.5,0,0,0,7.773,13.483Z" transform="translate(0 -2.371)" fill="#ff9d21"/>
      <path id="Path_3076" data-name="Path 3076" d="M20.534,8.351a.5.5,0,0,0-.524.042l-6.974,5.09a.5.5,0,0,0,0,.81l6.974,5.122a.5.5,0,0,0,.8-.4V8.8A.5.5,0,0,0,20.534,8.351Z" transform="translate(-3.666 -2.371)" fill="#ffb454"/>
      <path id="Path_3077" data-name="Path 3077" d="M.025,20.882a.5.5,0,0,0,.477.346H16.641a.5.5,0,0,0,.3-.907L8.869,14.394a.5.5,0,0,0-.595,0L.2,20.321a.5.5,0,0,0-.18.561Z" transform="translate(0 -4.085)" fill="#ff9d21"/>
      <path id="Path_3078" data-name="Path 3078" d="M.025,20.882a.5.5,0,0,0,.477.346H8.571V14.3a.5.5,0,0,0-.3.1L.2,20.321a.5.5,0,0,0-.18.561Z" transform="translate(0 -4.085)" fill="#ffb454"/>
    </g>
  </g>
</svg>
