<svg xmlns="http://www.w3.org/2000/svg" xmlns:xlink="http://www.w3.org/1999/xlink" width="24" height="24" viewBox="0 0 24 24">
  <defs>
    <clipPath id="clip-path">
      <rect id="Rectangle_204" data-name="Rectangle 204" width="24" height="24" transform="translate(184.2 349.8)" fill="#5b5b5b" stroke="#e0e1e3" stroke-width="1.2"/>
    </clipPath>
  </defs>
  <g id="hadeth-icon" transform="translate(-184.2 -349.8)" clip-path="url(#clip-path)">
    <g id="el7ades-01" transform="translate(176.077 345.031)">
      <path id="Path_115" data-name="Path 115" d="M24.879,24.776c.012.138.04.248.22.226l.571,1.225H10.451L11,25c.222.03.221-.117.248-.274.221-1.295.433-2.594.691-3.88A5.06,5.06,0,0,1,14.52,17.4c.6-.35,1.207-.671,1.811-1.02.3-.172.6-.351.886-.536.214-.14.554-.295.664-.54a.682.682,0,0,0,.033-.389.415.415,0,0,0-.074-.18.36.36,0,0,1-.007-.523.466.466,0,0,0,.08-.227L18.064,13l.149.989a.443.443,0,0,0,.081.226.352.352,0,0,1,.009.506.552.552,0,0,0,.067.738c.567.375,1.14.743,1.719,1.1.681.416,1.388.79,2.054,1.227a4.494,4.494,0,0,1,1.973,2.845Zm-12.2-.592v.743H13.2v-.743Zm5.64.746v-.743h-.523v.743Zm5.123-.738H22.92v.738h.523Zm-9.055.738H14.9v-.738h-.512Zm2.213,0v-.738h-.5v.738Zm3.42-.744h-.508v.738h.514Zm1.2-.005v.743h.5V24.18Z" transform="translate(0 0)" fill="#2e8572"/>
      <path id="Path_116" data-name="Path 116" d="M9.928,28.769V26.88H26.046V22.2h-.72V20.235h1.052c-.188-.608.26-.836.627-1.14l.818.705.818-.7c.352.3.827.5.631,1.132h1.046v1.96h-.725v6.583Zm17.2-3.906c-.014.3-.005.61-.005.916v.769h1.41V24.893c0-.146.008-.283-.223-.268a.974.974,0,0,0-.488-1.194.98.98,0,0,0-.49,1.2Z" transform="translate(0 0)" fill="#ffce8d"/>
      <path id="Path_117" data-name="Path 117" d="M29.3,15.7c0-.067-.008-.112-.008-.158V10.276a1.274,1.274,0,0,1,.071-.365c.113-.371.234-.738.365-1.151h-1.18V7.623a.742.742,0,0,0-.371-.688.41.41,0,0,1-.146-.584.366.366,0,0,0-.041-.629.366.366,0,0,1-.021-.088c-.007-.05-.014-.1-.024-.149l-.152-.716-.124.818a.589.589,0,0,1-.028.146.365.365,0,0,0-.013.628c.089.141.067.48-.043.523a.82.82,0,0,0-.5.893c.006.326,0,.653,0,1.006H25.92c.127.4.25.757.36,1.124a1.68,1.68,0,0,1,.076.459q.008,2.54,0,5.08c0,.083-.007.166-.011.263h-.4c.17.636.335,1.247.5,1.853l.562-.48.824.709.82-.707.66.556a6.031,6.031,0,0,1,.414-1.934Zm-1.882-1.14a3.112,3.112,0,0,1,.022-.96c.092-.268-.014-.665.392-.794.217.12.227.345.305.576a8.633,8.633,0,0,1,.1,1.176Zm0-2.58a3.038,3.038,0,0,1,.023-.968c.092-.261-.022-.652.392-.774.22.112.221.349.3.58.14.39.006.762.1,1.162Z" transform="translate(0)" fill="#ffce8d"/>
      <path id="Path_118" data-name="Path 118" d="M29.294,19.251l-.647-.559-.823.713L27,18.693l-.641.546c0-.423-.016-.8.011-1.175.006-.088.147-.17.232-.249.12-.11.246-.215.392-.342l.825.712.824-.713c.2.176.4.347.6.524a.186.186,0,0,1,.048.12C29.3,18.476,29.294,18.832,29.294,19.251Z" transform="translate(0 0)" fill="#2e8572"/>
    </g>
  </g>
</svg>
