<svg xmlns="http://www.w3.org/2000/svg" xmlns:xlink="http://www.w3.org/1999/xlink" width="24" height="24" viewBox="0 0 24 24">
  <defs>
    <clipPath id="clip-path">
      <rect id="Rectangle_204" data-name="Rectangle 204" width="24" height="24" transform="translate(183 337.8)" fill="#5b5b5b" stroke="#e0e1e3" stroke-width="1.2"/>
    </clipPath>
  </defs>
  <g id="hesn-icon" transform="translate(-183 -337.8)" clip-path="url(#clip-path)">
    <g id="MUSLIM2-01" transform="translate(171.745 330.223)">
      <path id="Path_166" data-name="Path 166" d="M17.96,25.847c0-2.127-.01-4.253,0-6.38a5.049,5.049,0,0,1,.24-1.383,6.227,6.227,0,0,1,5.293-4.357v3.53a1.6,1.6,0,0,0-1.405,2.381,5.237,5.237,0,0,0,1.4,1.4l.022.167-.01,4.705h0C21.656,25.873,19.8,25.98,17.96,25.847Z" transform="translate(0 -0.089)" fill="#b16835"/>
      <path id="Path_167" data-name="Path 167" d="M17.96,25.416c1.746.13,3.5.025,5.244.06l0,6.06a26.744,26.744,0,0,1-3.019-.014c-.037-.131-.161-.14-.259-.18a2.617,2.617,0,0,1-1.02-.726,4.312,4.312,0,0,1-1.153-2.989,12.279,12.279,0,0,1,.212-2.216Z" fill="#b16835"/>
      <path id="Path_168" data-name="Path 168" d="M30.3,13.637a3.625,3.625,0,0,1-3.307,2.23c-.2.011-.4,0-.6-.008-.259-.074-.523-.131-.776-.224a3.815,3.815,0,0,1-2.1-1.954,3.942,3.942,0,0,1-.211-2.36A3.743,3.743,0,0,1,24.5,9.344Z" fill="#f2af71"/>
      <path id="Path_169" data-name="Path 169" d="M30.3,13.637,24.494,9.345c.352-.373.689-.761,1.058-1.115A2.28,2.28,0,0,1,28.465,8c.683.48,1.339.994,2.008,1.495a3.133,3.133,0,0,1,.555.631l.06.085-.012.011a2.479,2.479,0,0,1-.234,2.548C30.649,13.048,30.484,13.346,30.3,13.637Z" fill="#2e8572"/>
      <path id="Path_170" data-name="Path 170" d="M17.749,27.631A4.32,4.32,0,0,0,18.9,30.62a2.611,2.611,0,0,0,1.02.726c.1.041.221.05.258.18-.329.007-.66.022-.988.021q-2.13-.005-4.26-.019a5.16,5.16,0,0,1,2.04-3.451,5.3,5.3,0,0,1,.78-.447Z" fill="#f2af71"/>
      <path id="Path_171" data-name="Path 171" d="M23.51,13.68a3.807,3.807,0,0,0,2.1,1.954c.253.093.517.15.776.224q0,1.845-.01,3.691c-.628-.621-1.26-1.237-1.883-1.864a1.634,1.634,0,0,0-1.31-.559v-3.4C23.287,13.657,23.4,13.709,23.51,13.68Z" fill="#b16835"/>
      <path id="Path_172" data-name="Path 172" d="M31.084,10.2l-.06-.085Z" fill="#00a732"/>
      <path id="Path_173" data-name="Path 173" d="M22.587,31.793l0-6.314v0H26.4l3.457,2.392c.318.22.637.439.948.667a1.82,1.82,0,0,1,.712,2,1.706,1.706,0,0,1-1.613,1.28c-2.2.019-5,.007-7.2,0a.43.43,0,0,1-.116-.029Z" transform="translate(-0.002 -0.253)" fill="#b16835"/>
      <path id="Path_174" data-name="Path 174" d="M23.188,17.126a1.634,1.634,0,0,1,1.31.559c.622.628,1.255,1.244,1.883,1.864.12.176.185.009.247-.052q.733-.718,1.453-1.451a1.542,1.542,0,0,1,1.652-.427,1.516,1.516,0,0,1,1.09,1.31,1.451,1.451,0,0,1-.4,1.273c-.856.877-1.726,1.74-2.6,2.6a2.177,2.177,0,0,1-1.427.553,3.2,3.2,0,0,1-1.949-1.2c-.4-.42-.827-.82-1.242-1.228-.007-.055-.014-.109-.019-.161q0-1.822.009-3.641Z" fill="#f2af71"/>
      <path id="Path_175" data-name="Path 175" d="M23.2,20.936c.415.409.84.806,1.244,1.228a3.2,3.2,0,0,0,1.952,1.2l0,2.111H23.189Z" transform="translate(-0.005)" fill="#b16835"/>
      <path id="Path_176" data-name="Path 176" d="M23.188,17.131q0,1.82-.009,3.641a4.956,4.956,0,0,1-1.32-1.345,1.541,1.541,0,0,1,1.329-2.3Z" fill="#b16835"/>
    </g>
  </g>
</svg>
