<svg xmlns="http://www.w3.org/2000/svg" xmlns:xlink="http://www.w3.org/1999/xlink" width="24" height="24" viewBox="0 0 24 24">
  <defs>
    <clipPath id="clip-path">
      <rect id="Icon_Container" data-name="Icon Container" width="24" height="24" transform="translate(378 131)" fill="#6d6d6d"/>
    </clipPath>
  </defs>
  <g id="home-icon" transform="translate(-378 -131)" clip-path="url(#clip-path)">
    <g id="home_1_" data-name="home (1)" transform="translate(382 134)">
      <path id="Path_3079" data-name="Path 3079" d="M16.543,7.395h0L9.607.459a1.565,1.565,0,0,0-2.214,0L.462,7.39.455,7.4A1.565,1.565,0,0,0,1.5,10.064l.048,0h.276v5.1A1.834,1.834,0,0,0,3.653,17H6.366a.5.5,0,0,0,.5-.5v-4a.837.837,0,0,1,.836-.836H9.3a.837.837,0,0,1,.836.836v4a.5.5,0,0,0,.5.5h2.713a1.834,1.834,0,0,0,1.832-1.832v-5.1h.256a1.565,1.565,0,0,0,1.108-2.671Zm0,0" transform="translate(0 0)" fill="#40b198"/>
      <path id="Path_3080" data-name="Path 3080" d="M19.1,7.395h0L12.975.459A1.3,1.3,0,0,0,12,0h0V11.666H12.7a.792.792,0,0,1,.737.836v4a.472.472,0,0,0,.439.5h2.394a1.736,1.736,0,0,0,1.616-1.832v-5.1h.226a1.3,1.3,0,0,0,.977-.459,1.719,1.719,0,0,0,0-2.213Zm0,0" transform="translate(-2.498)" fill="#2e8572"/>
    </g>
  </g>
</svg>
