<svg xmlns="http://www.w3.org/2000/svg" xmlns:xlink="http://www.w3.org/1999/xlink" width="32" height="32" viewBox="0 0 32 32">
  <defs>
    <clipPath id="clip-path">
      <rect id="Rectangle_206" data-name="Rectangle 206" width="20" height="20" transform="translate(269 505)" fill="#505050" stroke="#707070" stroke-width="1"/>
    </clipPath>
  </defs>
  <g id="listen-icon" transform="translate(-263 -499)">
    <circle id="Ellipse_1" data-name="Ellipse 1" cx="16" cy="16" r="16" transform="translate(263 499)" fill="#fff"/>
    <g id="listen-icon-2" data-name="listen-icon" clip-path="url(#clip-path)">
      <g id="Page-1" transform="translate(270.525 505)">
        <g id="_026---Listener" data-name="026---Listener">
          <path id="Shape" d="M8.834,2.373H8.153s-4.268.186-4.437,3.895c-.027.573-.034,1.078-.034,1.529a27.421,27.421,0,0,0,.386,3.959c.014.149.02.295.02.447a6.1,6.1,0,0,0,3.851,5.424c.071.027.139.051.21.075a1,1,0,0,0,.688,0c.071-.024.142-.047.21-.075a6.128,6.128,0,0,0,3.837-5.085c.01-.112.017-.227.017-.339,0-1.1.386-1.932.4-4.407,0-.451-.007-.956-.034-1.529C13.1,2.559,8.834,2.373,8.834,2.373Z" fill="#b26834"/>
          <path id="Shape-2" data-name="Shape" d="M11.39,16.959a6.281,6.281,0,0,1-2.108,1.305c-.061.024-.146.054-.231.081a1.621,1.621,0,0,1-.556.095,1.664,1.664,0,0,1-.576-.1c-.064-.02-.142-.047-.22-.078a6.328,6.328,0,0,1-2.139-1.339,2.721,2.721,0,0,1-1.132,2.4A9.673,9.673,0,0,0,8.475,20a9.673,9.673,0,0,0,4.047-.678A2.7,2.7,0,0,1,11.39,16.959Z" fill="#b26834"/>
          <path id="Shape-3" data-name="Shape" d="M3.393,11.817c-.024-.258-.064-.525-.115-.831A19.511,19.511,0,0,1,3,7.8V7.8H2.712a.68.68,0,0,0-.678.678v3.39a.68.68,0,0,0,.678.678h.712c-.007-.112-.014-.22-.014-.332,0-.139-.007-.264-.017-.393Z" fill="#b26834"/>
          <path id="Shape-4" data-name="Shape" d="M14.237,7.8h-.254v0a19.081,19.081,0,0,1-.271,3.176A7.668,7.668,0,0,0,13.58,12.2a2.838,2.838,0,0,1-.017.339h.675a.68.68,0,0,0,.678-.678V8.475a.68.68,0,0,0-.678-.678Z" fill="#b26834"/>
          <path id="Shape-5" data-name="Shape" d="M16.271,8.475V7.8A7.8,7.8,0,1,0,.678,7.8v.678A.678.678,0,0,0,0,9.153v2.034a.678.678,0,0,0,.678.678h.678V7.8a7.119,7.119,0,1,1,14.237,0v4.068h.678a.678.678,0,0,0,.678-.678V9.153A.678.678,0,0,0,16.271,8.475Z" fill="#b26834"/>
        </g>
      </g>
    </g>
  </g>
</svg>
