<svg xmlns="http://www.w3.org/2000/svg" xmlns:xlink="http://www.w3.org/1999/xlink" width="24" height="24" viewBox="0 0 24 24">
  <defs>
    <clipPath id="clip-path">
      <rect id="Rectangle_204" data-name="Rectangle 204" width="24" height="24" transform="translate(192 349.8)" fill="#5b5b5b" stroke="#e0e1e3" stroke-width="1.2"/>
    </clipPath>
  </defs>
  <g id="maktabat-icon" transform="translate(-192 -349.8)" clip-path="url(#clip-path)">
    <g id="librariesICON-01" transform="translate(185.204 346.135)">
      <path id="Path_126" data-name="Path 126" d="M29.064,24.622c.365,0,.731-.009,1.1-.005a.727.727,0,0,1,.636.467v.376a.767.767,0,0,1-.844.48c-.3-.023-.593-.01-.89-.013.052-.032.1-.06.154-.1a.66.66,0,0,0,.214-.895,1.027,1.027,0,0,0-.366-.312Z" fill="#b5622b"/>
      <path id="Path_127" data-name="Path 127" d="M13.462,10.744l-.011,11.1q-1.229,0-2.46-.005c-.677,0-1.352-.01-2.029-.014L8.953,10.74Zm-2.924,5.595V19.71c0,.266.125.407.346.4s.356-.158.356-.454V13.013c0-.292-.129-.45-.36-.451s-.344.143-.344.453Zm1.612-.026V18.49c0,.376.116.545.365.54s.356-.173.356-.552V14.2a1.27,1.27,0,0,0-.03-.3.313.313,0,0,0-.324-.251.33.33,0,0,0-.337.24.814.814,0,0,0-.029.278Z" fill="#fe6c81"/>
      <path id="Path_128" data-name="Path 128" d="M19.226,24.619c1.529-.009,3.06-.009,4.586-.011H24.84l4.015.007c.07,0,.14,0,.21,0a1.08,1.08,0,0,1,.367.31.66.66,0,0,1-.214.895l-.154.1c-.148,0-.3,0-.444,0H7.654a1.5,1.5,0,0,1-.371-.025.652.652,0,0,1-.48-.71.66.66,0,0,1,.664-.575c.484-.01.968-.009,1.451-.013.1,0,.2.009.3.009h9.323Z" fill="#d67d42"/>
      <path id="Path_129" data-name="Path 129" d="M18.821,7.187c-.06-.269-.018-.36.24-.432l3.724-1.072a1.235,1.235,0,0,1,.48.773c.18.682.4,1.355.6,2.032l-.029.042a.835.835,0,0,0-.2.04c-1,.289-2,.564-3,.865a5.968,5.968,0,0,0-1.037.328l-.47-1.6Z" fill="#d3e06c"/>
      <path id="Path_130" data-name="Path 130" d="M8.948,8.867c0-.889-.005-1.777,0-2.666,0-.251.06-.3.334-.3h4.072a.461.461,0,0,1,.11.343c0,.871,0,1.754,0,2.626Z" fill="#fe6c81"/>
      <path id="Path_131" data-name="Path 131" d="M8.945,24.605v-.888c1.208,0,2.416.005,3.623,0a.9.9,0,0,0,.884-.9v-1l.014-.014h.975l.02.021c-.014.626-.026,1.253.006,1.876.92,0,1.84.023,2.76.01a.9.9,0,0,0,.82-.892V21.814l.008-.009.984.013.023.024c-.046.762-.012,1.525-.02,2.286-.005.484,0,.484-.5.484Z" fill="#415e6f"/>
      <path id="Path_132" data-name="Path 132" d="M25.392,10.034q1.445,5.03,2.888,10.061c.017.06.025.12.038.18l-.983.264q-1.479-5.114-2.959-10.226h0Z" fill="#a4ce3a"/>
      <path id="Path_133" data-name="Path 133" d="M14.473,7.769H17.94a.5.5,0,0,1,.1.346c0,.872,0,1.744,0,2.617l-3.566,0Z" fill="#f8d020"/>
      <path id="Path_134" data-name="Path 134" d="M27.334,20.541l.984-.264c.247.84.5,1.68.741,2.52.155.536.15.536-.382.689q-1.868.536-3.734,1.076a.84.84,0,0,0-.1.047H23.814l-.224-.84c1.128-.34,2.255-.675,3.383-1.02a.94.94,0,0,0,.677-.949,4.36,4.36,0,0,0-.327-1.223C27.328,20.566,27.331,20.554,27.334,20.541Z" fill="#415e6f"/>
      <path id="Path_135" data-name="Path 135" d="M13.454,8.865l.008,1.88-4.511-.006q0-.935,0-1.871Z" fill="#fceca4"/>
      <path id="Path_136" data-name="Path 136" d="M13.45,21.84v.982a.9.9,0,0,1-.884.9c-1.207,0-2.415,0-3.623,0L8.96,21.83Z" fill="#56788a"/>
      <path id="Path_137" data-name="Path 137" d="M23.859,8.484c-.2-.676-.42-1.346-.6-2.028a1.222,1.222,0,0,0-.48-.773c.313-.091.626-.18.94-.272.18-.052.331-.03.389.175.251.871.494,1.745.741,2.618Z" fill="#a4ce3a"/>
      <path id="Path_138" data-name="Path 138" d="M14.473,8.863c-.272-.007-.748,0-1.02,0V6.24a.461.461,0,0,0-.108-.34c.264,0,.527-.011.791-.008.245,0,.329.09.331.344,0,.512.017,1.025.019,1.537Z" fill="#ec2261"/>
      <path id="Path_139" data-name="Path 139" d="M18.047,10.733c0-.872,0-1.744,0-2.617a.5.5,0,0,0-.1-.346l.784-.01a.369.369,0,0,1,.306.129l.015.044v2.8l-1,0Z" fill="#fea402"/>
      <path id="Path_140" data-name="Path 140" d="M23.859,8.484l.994-.28.54,1.831-1.02.278L23.857,8.53C23.858,8.515,23.858,8.5,23.859,8.484Z" fill="#fbdd6d"/>
      <path id="Path_141" data-name="Path 141" d="M13.462,10.744c.322,0,.636-.007.96-.007l.02,11.071H13.45Z" fill="#ec2261"/>
      <path id="Path_142" data-name="Path 142" d="M20.085,11.534a16.71,16.71,0,0,1-.5-1.772,5.951,5.951,0,0,1,1.037-.328c1-.3,2-.576,3-.865a.735.735,0,0,1,.229-.04q.257.892.515,1.783h0c-.336.094-.671.184-1.007.28Z" fill="#fceca4"/>
      <path id="Path_143" data-name="Path 143" d="M14.418,21.519q0-4.448,0-8.9l3.629.01q0,2.014,0,4.028,0,2.577,0,5.153a.276.276,0,0,1-.008.032L14.4,21.835m2.717-4.594V14.8a.374.374,0,0,0-.188-.376c-.265-.14-.518.06-.519.409V19.62c0,.293.131.451.36.448s.342-.15.343-.458q0-1.182,0-2.366Z" fill="#f8d020"/>
      <path id="Path_144" data-name="Path 144" d="M18.052,21.807q0-2.576,0-5.153,0-2.014,0-4.028v-.013a6.028,6.028,0,0,0,1,.031v9.034c0,.046-.008.094-.011.14Z" fill="#fea402"/>
      <path id="Path_145" data-name="Path 145" d="M14.4,21.835l3.646,0c0,.328,0,.655,0,.983a.9.9,0,0,1-.82.892c-.92.014-1.9,0-2.82-.009Q14.4,22.77,14.4,21.835Z" fill="#56788a"/>
      <path id="Path_146" data-name="Path 146" d="M20.085,11.534l3.284-.94q.5-.143,1.007-.28,1.479,5.114,2.959,10.226c0,.013-.007.025-.011.037l-4.3,1.225q-.683-2.358-1.364-4.715-.752-2.605-1.5-5.212C20.134,11.76,20.111,11.648,20.085,11.534Zm2.526,1.128a.376.376,0,0,0-.274.13.454.454,0,0,0-.036.465q.763,2.662,1.525,5.326c.107.376.21.752.328,1.122a.341.341,0,0,0,.439.245.37.37,0,0,0,.24-.45c-.01-.045-.027-.089-.04-.134q-.613-2.137-1.225-4.272l-.6-2.088c-.053-.185-.148-.326-.353-.346Zm1.853.605a.341.341,0,0,0-.329.468q.626,2.193,1.26,4.38c.082.283.259.4.465.337s.287-.263.209-.54q-.338-1.18-.675-2.36c-.188-.652-.372-1.3-.564-1.955-.05-.185-.139-.336-.36-.335Z" fill="#d3e06c"/>
      <path id="Path_147" data-name="Path 147" d="M14.419,10.74l3.629,0-.005.009q0,.936.007,1.873v.013l-3.629-.01Z" fill="#fceca4"/>
      <path id="Path_148" data-name="Path 148" d="M14.482,10.74c-.322,0-.7.007-1.02.007l-.008-1.88c.272,0,.545-.01.818,0,.133,0,.2-.044.2-.174Z" fill="#f9d262"/>
      <path id="Path_149" data-name="Path 149" d="M23.026,21.8l4.3-1.224A4.36,4.36,0,0,1,27.65,21.8a.94.94,0,0,1-.678.949c-1.128.346-2.255.681-3.383,1.02Q23.306,22.787,23.026,21.8Z" fill="#56788a"/>
      <path id="Path_150" data-name="Path 150" d="M18.049,12.614q0-.936-.007-1.873l1,0a4.84,4.84,0,0,1,.026.953,4.777,4.777,0,0,1-.025.955,6.022,6.022,0,0,1-1-.031Z" fill="#fbdd6d"/>
    </g>
  </g>
</svg>
