<svg xmlns="http://www.w3.org/2000/svg" xmlns:xlink="http://www.w3.org/1999/xlink" width="24" height="24" viewBox="0 0 24 24">
  <defs>
    <clipPath id="clip-path">
      <rect id="Rectangle_204" data-name="Rectangle 204" width="24" height="24" transform="translate(191.4 349.8)" fill="#5b5b5b" stroke="#e0e1e3" stroke-width="1.2"/>
    </clipPath>
  </defs>
  <g id="mesbaha-icon" transform="translate(-191.4 -349.8)" clip-path="url(#clip-path)">
    <g id="sebha-01" transform="translate(171.555 335.261)">
      <path id="Path_177" data-name="Path 177" d="M34.564,33.472l-.149-.12c-.074-.06-.156-.12-.156-.12a.869.869,0,0,1-.233-1.156l.01-.014a.832.832,0,0,1,1.212-.133s.094.068.187.145l.187.153a.973.973,0,0,1,.352.66.669.669,0,0,1-.25.585l-.013.011a.938.938,0,0,1-.589.193.849.849,0,0,1-.557-.2Z" fill="#006838"/>
      <path id="Path_178" data-name="Path 178" d="M35.452,34.948a1.256,1.256,0,0,0-.019-.251.863.863,0,0,1,.089-.47,1.061,1.061,0,0,1,.38-.484l.014-.008a.631.631,0,0,1,.637-.036.974.974,0,0,1,.487.71,3.078,3.078,0,0,1,.043.609,1,1,0,0,1-.4.784.611.611,0,0,1-.643.031l-.015-.008a1.151,1.151,0,0,1-.425-.439.809.809,0,0,1-.148-.435Z" fill="#006838"/>
      <path id="Path_179" data-name="Path 179" d="M34.457,36.276s.076-.046.145-.094a1.447,1.447,0,0,0,.139-.1.84.84,0,0,1,.522-.159,1.046,1.046,0,0,1,.59.18l.013.011a.637.637,0,0,1,.266.581.981.981,0,0,1-.4.688s-.106.084-.212.154-.218.14-.218.14a.955.955,0,0,1-.749.12.686.686,0,0,1-.469-.425l-.005-.015a.929.929,0,0,1,.374-1.08Z" fill="#006838"/>
      <path id="Path_180" data-name="Path 180" d="M32.4,36.9l.191-.021a.815.815,0,0,0,.131-.019l.06-.011a.9.9,0,0,1,1,.6v.016a.817.817,0,0,1-.729,1l-.074.014a1.4,1.4,0,0,1-.164.025l-.24.026a.931.931,0,0,1-.7-.192.705.705,0,0,1-.273-.569v-.017a.869.869,0,0,1,.247-.575A.917.917,0,0,1,32.4,36.9Z" fill="#006838"/>
      <path id="Path_181" data-name="Path 181" d="M30.145,36.772c0,.008.384.072.384.072a.894.894,0,0,1,.743.9v.017a.82.82,0,0,1-1.013.7l-.235-.041c-.12-.019-.233-.047-.233-.047a.827.827,0,0,1-.679-1.028l.005-.016A.885.885,0,0,1,30.145,36.772Z" fill="#006838"/>
      <path id="Path_182" data-name="Path 182" d="M28.009,35.953l.172.094c.085.049.173.091.173.091a.883.883,0,0,1,.452,1.076l-.006.015a.823.823,0,0,1-1.175.373s-.106-.051-.212-.106l-.212-.113a.821.821,0,0,1-.355-1.178l.01-.014a.89.89,0,0,1,1.153-.24Z" fill="#006838"/>
      <path id="Path_183" data-name="Path 183" d="M26.208,34.555c-.008.008.275.277.275.277a.922.922,0,0,1,.274.557.849.849,0,0,1-.158.6l-.011.013a.708.708,0,0,1-.565.283.926.926,0,0,1-.665-.271s-.345-.329-.334-.337a.836.836,0,0,1,.007-1.23l.013-.01a.868.868,0,0,1,1.165.113Z" fill="#006838"/>
      <path id="Path_184" data-name="Path 184" d="M24.874,32.678l.18.353a.849.849,0,0,1-.2,1.147l-.014.01a.847.847,0,0,1-1.191-.326l-.212-.416a1,1,0,0,1-.094-.7.748.748,0,0,1,.425-.476l.016-.007a.811.811,0,0,1,.619,0,.861.861,0,0,1,.475.42Z" fill="#006838"/>
      <path id="Path_185" data-name="Path 185" d="M24.044,30.5l.106.388a.928.928,0,0,1,.025.327.829.829,0,0,1-.515.738l-.015.005a.743.743,0,0,1-.637-.05.96.96,0,0,1-.272-.223.982.982,0,0,1-.159-.338l-.12-.45a1.1,1.1,0,0,1-.033-.371.9.9,0,0,1,.12-.329.743.743,0,0,1,.52-.363h.016a.806.806,0,0,1,.6.149.884.884,0,0,1,.212.226A.849.849,0,0,1,24.044,30.5Z" fill="#006838"/>
      <path id="Path_186" data-name="Path 186" d="M23.729,28.181l.026.4a.877.877,0,0,1-.2.606.784.784,0,0,1-.531.319h-.017a.763.763,0,0,1-.61-.192.977.977,0,0,1-.278-.644l-.029-.464a.84.84,0,0,1,.835-.9h.017a.857.857,0,0,1,.787.875Z" fill="#006838"/>
      <path id="Path_187" data-name="Path 187" d="M23.953,25.84s-.023.1-.046.2a1.555,1.555,0,0,0-.03.2.869.869,0,0,1-.915.743h-.017a.835.835,0,0,1-.682-1.01s.013-.115.034-.228l.051-.225a.831.831,0,0,1,.991-.706l.015.005a.875.875,0,0,1,.6,1.024Z" fill="#006838"/>
      <path id="Path_188" data-name="Path 188" d="M24.6,23.684l-.155.378a.849.849,0,0,1-1.03.568H23.4a.85.85,0,0,1-.494-1.122l.173-.425a.97.97,0,0,1,.467-.517.754.754,0,0,1,.637,0l.015.007a.8.8,0,0,1,.409.469A.878.878,0,0,1,24.6,23.684Z" fill="#006838"/>
      <path id="Path_189" data-name="Path 189" d="M25.67,21.547l-.212.352a1,1,0,0,1-.494.412.8.8,0,0,1-.624-.032l-.015-.007a.743.743,0,0,1-.392-.5.871.871,0,0,1,.106-.688l.233-.393a.875.875,0,0,1,.55-.425.755.755,0,0,1,.624.106l.014.008a.873.873,0,0,1,.21,1.163Z" fill="#006838"/>
      <path id="Path_190" data-name="Path 190" d="M27.074,19.592l-.257.319a.9.9,0,0,1-.562.326.78.78,0,0,1-.607-.128l-.014-.01a.766.766,0,0,1-.311-.555.955.955,0,0,1,.212-.656l.283-.355a.84.84,0,0,1,1.21-.138l.011.011a.864.864,0,0,1,.033,1.186Z" fill="#006838"/>
      <path id="Path_191" data-name="Path 191" d="M28.765,17.921l-.309.26a.872.872,0,0,1-1.178,0l-.011-.011a.829.829,0,0,1,.115-1.216l.355-.3a.9.9,0,0,1,.674-.212.725.725,0,0,1,.545.319l.01.014a.831.831,0,0,1,.123.614.96.96,0,0,1-.322.533Z" fill="#006838"/>
      <path id="Path_192" data-name="Path 192" d="M30.725,16.7l-.355.16a.874.874,0,0,1-1.135-.284l-.008-.014a.832.832,0,0,1,.406-1.161l.434-.2a1.129,1.129,0,0,1,.37-.1.917.917,0,0,1,.352.066.72.72,0,0,1,.434.463v.016a.84.84,0,0,1-.06.62.886.886,0,0,1-.184.24.78.78,0,0,1-.255.188Z" fill="#006838"/>
      <path id="Path_193" data-name="Path 193" d="M32.88,16.169l-.189.011a1.469,1.469,0,0,0-.187.016.879.879,0,0,1-.965-.637v-.016c-.124-.439.225-.868.776-.967a.425.425,0,0,1,.076-.01l.168-.011.244-.016a.811.811,0,0,1,.926.825v.017a.91.91,0,0,1-.85.788Z" fill="#006838"/>
      <path id="Path_194" data-name="Path 194" d="M35.071,16.484s-.091-.031-.184-.056l-.185-.053a.9.9,0,0,1-.653-.96V15.4a.816.816,0,0,1,1.08-.6l.232.067c.116.033.23.071.23.071a.976.976,0,0,1,.552.468.728.728,0,0,1,.008.637l-.007.015a.835.835,0,0,1-.463.416.871.871,0,0,1-.613.014Z" fill="#006838"/>
      <path id="Path_195" data-name="Path 195" d="M37.08,17.548l-.157-.12-.164-.106a.889.889,0,0,1-.32-1.121l.007-.014a.82.82,0,0,1,1.21-.226l.2.131.19.14a1.1,1.1,0,0,1,.262.275.97.97,0,0,1,.12.33.72.72,0,0,1-.173.6l-.011.011a.849.849,0,0,1-.559.272.824.824,0,0,1-.309-.036.8.8,0,0,1-.294-.142Z" fill="#006838"/>
      <path id="Path_196" data-name="Path 196" d="M38.728,19.155l-.248-.309a.861.861,0,0,1-.212-.586.82.82,0,0,1,.223-.581l.011-.011a.734.734,0,0,1,.6-.22.985.985,0,0,1,.631.335l.29.368a.823.823,0,0,1-.127,1.222l-.014.008a.886.886,0,0,1-1.147-.226Z" fill="#006838"/>
      <path id="Path_197" data-name="Path 197" d="M39.874,21.137l-.155-.356a.89.89,0,0,1,.328-1.121l.015-.008a.821.821,0,0,1,1.144.451s.049.106.1.218l.094.218a.994.994,0,0,1,0,.728.72.72,0,0,1-.484.413H40.9a.9.9,0,0,1-1.02-.548Z" fill="#006838"/>
      <path id="Path_198" data-name="Path 198" d="M40.244,23.256s.007-.088.014-.176a1.259,1.259,0,0,0,0-.18.688.688,0,0,1,.05-.293,1.02,1.02,0,0,1,.138-.265.887.887,0,0,1,.531-.34h.016a.694.694,0,0,1,.607.173.83.83,0,0,1,.212.293,1.227,1.227,0,0,1,.083.395,2.031,2.031,0,0,1,.005.254c-.01.127-.018.255-.018.255a1.024,1.024,0,0,1-.1.4.991.991,0,0,1-.236.289.653.653,0,0,1-.614.131h-.015a.976.976,0,0,1-.505-.377.769.769,0,0,1-.12-.262.817.817,0,0,1-.047-.293Z" fill="#006838"/>
      <path id="Path_199" data-name="Path 199" d="M39.571,24.955a1.41,1.41,0,0,0,.106-.128l.071-.09.029-.044a.859.859,0,0,1,.45-.319.989.989,0,0,1,.62,0h.013a.649.649,0,0,1,.425.476.967.967,0,0,1-.163.77l-.046.068c-.03.04-.07.092-.112.145a2.549,2.549,0,0,1-.169.2.955.955,0,0,1-.707.344.652.652,0,0,1-.565-.3l-.008-.014a.979.979,0,0,1-.146-.6,1.116,1.116,0,0,1,.06-.279.857.857,0,0,1,.141-.236Z" fill="#006838"/>
      <path id="Path_200" data-name="Path 200" d="M37.98,25.758a1.56,1.56,0,0,0,.287-.025.814.814,0,0,1,.248,0,1.3,1.3,0,0,1,.262.089,1.02,1.02,0,0,1,.457.415l.007.014a.642.642,0,0,1-.01.637.812.812,0,0,1-.266.283,1.009,1.009,0,0,1-.42.168,3.425,3.425,0,0,1-.573.049,1.015,1.015,0,0,1-.452-.1,1.07,1.07,0,0,1-.18-.106,1.032,1.032,0,0,1-.131-.143.637.637,0,0,1-.1-.639l.007-.015a1.046,1.046,0,0,1,.4-.475.8.8,0,0,1,.12-.064.855.855,0,0,1,.117-.06.728.728,0,0,1,.232-.033Z" fill="#006838"/>
      <path id="Path_201" data-name="Path 201" d="M36.415,24.9l.037.046.087.085.124.124a1.009,1.009,0,0,1,.166.223.879.879,0,0,1,.079.28.971.971,0,0,1-.085.6l-.007.014a.671.671,0,0,1-.54.36.96.96,0,0,1-.37-.06.926.926,0,0,1-.36-.222s-.371-.36-.356-.365a.821.821,0,0,1,.065-1.238l.013-.01a.893.893,0,0,1,1.147.164Z" fill="#006838"/>
      <path id="Path_202" data-name="Path 202" d="M35.065,22.916l.233.374a.857.857,0,0,1-.212,1.176l-.014.01a.847.847,0,0,1-1.162-.319l-.226-.36a.871.871,0,0,1,.187-1.168l.014-.011a.832.832,0,0,1,1.181.3Z" fill="#006838"/>
      <path id="Path_203" data-name="Path 203" d="M33.18,20.767l.218.161.149.113a.661.661,0,0,1,.065.052.814.814,0,0,1,.074,1.26l-.013.011a.922.922,0,0,1-1.136-.035l-.261-.2a.72.72,0,0,1-.187-.175,1.593,1.593,0,0,1-.123-.248,1.023,1.023,0,0,1-.046-.611v-.016a.649.649,0,0,1,.452-.46.743.743,0,0,1,.388-.014,1.061,1.061,0,0,1,.42.161Z" fill="#006838"/>
      <path id="Path_204" data-name="Path 204" d="M29.981,20.471s.127-.06.261-.106l.275-.082a.989.989,0,0,1,.833.136.617.617,0,0,1,.253.592v.016a1.143,1.143,0,0,1-.265.553.814.814,0,0,1-.41.287l-.141.04c-.07.026-.139.06-.139.06a.91.91,0,0,1-.531.037,1,1,0,0,1-.54-.3l-.011-.011a.647.647,0,0,1-.133-.624.955.955,0,0,1,.548-.595Z" fill="#006838"/>
      <path id="Path_205" data-name="Path 205" d="M27.848,22.68s.014-.031.033-.076l.083-.161c.06-.117.124-.232.124-.232a.992.992,0,0,1,.62-.472.673.673,0,0,1,.614.175l.011.011a.929.929,0,0,1,.265.559.849.849,0,0,1-.1.555s-.041.074-.08.149l-.055.106a.41.41,0,0,0-.02.049.83.83,0,0,1-.391.4.944.944,0,0,1-.606.116H28.33a.667.667,0,0,1-.5-.394A1,1,0,0,1,27.848,22.68Z" fill="#006838"/>
      <path id="Path_206" data-name="Path 206" d="M27.62,25.68l-.09-.5a.98.98,0,0,1,.188-.743.65.65,0,0,1,.574-.259h.017a.97.97,0,0,1,.57.259.849.849,0,0,1,.18.235,1.32,1.32,0,0,1,.088.279l.065.355a.913.913,0,0,1-.521,1.024l-.01.008a.685.685,0,0,1-.631-.052.985.985,0,0,1-.427-.606Z" fill="#006838"/>
      <path id="Path_207" data-name="Path 207" d="M28.8,28.245l-.262-.392a1.032,1.032,0,0,1-.127-.712.72.72,0,0,1,.4-.5l.015-.007a.835.835,0,0,1,.619-.025A.816.816,0,0,1,29.93,27l.221.328a.884.884,0,0,1-.141,1.168L30,28.5a.724.724,0,0,1-.611.145.908.908,0,0,1-.589-.4Z" fill="#006838"/>
      <path id="Path_208" data-name="Path 208" d="M30.54,30.293l-.319-.326a.828.828,0,0,1-.016-1.214l.013-.011a.88.88,0,0,1,1.184.092l.287.3a.863.863,0,0,1,.076,1.181l-.011.011a.84.84,0,0,1-1.214-.034Z" fill="#006838"/>
      <path id="Path_209" data-name="Path 209" d="M32.548,32.021l-.184-.133-.176-.143a.835.835,0,0,1-.188-1.2l.011-.013a.869.869,0,0,1,1.187-.076l.16.131.168.12a.865.865,0,0,1,.237,1.168l-.01.014a.834.834,0,0,1-1.205.133Z" fill="#006838"/>
      <path id="Path_210" data-name="Path 210" d="M34.26,33.472l-.149-.12c-.073-.06-.155-.12-.155-.12a.869.869,0,0,1-.233-1.156l.008-.014a.833.833,0,0,1,1.213-.133s.094.068.187.145l.186.153a.974.974,0,0,1,.352.66.67.67,0,0,1-.251.585l-.013.011a.936.936,0,0,1-.589.193A.849.849,0,0,1,34.26,33.472Z" fill="#2e8572"/>
      <path id="Path_211" data-name="Path 211" d="M34.517,32.764a.244.244,0,0,1-.164-.055l-.16-.131c-.085-.071-.18-.142-.18-.142a.272.272,0,0,1-.088-.328.174.174,0,0,1,.151-.077.34.34,0,0,1,.2.076c.011.008.089.065.166.128l.188.154a.368.368,0,0,1,.131.229c0,.038-.005.06-.021.071A.324.324,0,0,1,34.517,32.764Z" fill="#d7df23"/>
      <path id="Path_212" data-name="Path 212" d="M35.15,34.948a1.181,1.181,0,0,0-.018-.251.863.863,0,0,1,.089-.47,1.061,1.061,0,0,1,.379-.484l.014-.008a.637.637,0,0,1,.637-.036.971.971,0,0,1,.486.71,3,3,0,0,1,.043.609.991.991,0,0,1-.4.784.614.614,0,0,1-.644.031l-.015-.008a1.168,1.168,0,0,1-.425-.439.809.809,0,0,1-.146-.436Z" fill="#2e8572"/>
      <path id="Path_213" data-name="Path 213" d="M35.707,34.985a.586.586,0,0,1-.187-.212.416.416,0,0,1-.067-.136h0a1.373,1.373,0,0,0-.028-.33h0a.352.352,0,0,1,.043-.142.488.488,0,0,1,.159-.224.056.056,0,0,1,.033-.011.085.085,0,0,1,.031.008.4.4,0,0,1,.145.259l.02.12c.007.072.014.169.018.243V34.7a.394.394,0,0,1-.136.3h-.005Z" fill="#d7df23"/>
      <path id="Path_214" data-name="Path 214" d="M34.155,36.276s.076-.046.145-.094a1.356,1.356,0,0,0,.138-.1.84.84,0,0,1,.523-.159,1.046,1.046,0,0,1,.589.18l.014.011a.637.637,0,0,1,.265.581.977.977,0,0,1-.4.688s-.106.084-.212.154-.218.14-.218.14a.955.955,0,0,1-.749.12.685.685,0,0,1-.468-.425l-.007-.015a.931.931,0,0,1,.376-1.081Z" fill="#2e8572"/>
      <path id="Path_215" data-name="Path 215" d="M34.178,36.915a.243.243,0,0,1-.069-.008.076.076,0,0,1-.06-.052.326.326,0,0,1,.12-.366s.083-.05.163-.106.14-.1.173-.124a.232.232,0,0,1,.145-.035.448.448,0,0,1,.245.066c.025.017.03.021.028.051a.381.381,0,0,1-.155.25,2.033,2.033,0,0,1-.176.128c-.106.076-.2.131-.2.131a.385.385,0,0,1-.21.067Z" fill="#d7df23"/>
      <path id="Path_216" data-name="Path 216" d="M32.093,36.9l.192-.021a.8.8,0,0,0,.13-.019l.06-.011a.9.9,0,0,1,.995.6l.005.016a.817.817,0,0,1-.73,1l-.073.014a1.44,1.44,0,0,1-.164.025l-.24.026a.932.932,0,0,1-.7-.192.7.7,0,0,1-.272-.569v-.017a.868.868,0,0,1,.246-.575.92.92,0,0,1,.55-.273Z" fill="#2e8572"/>
      <path id="Path_217" data-name="Path 217" d="M31.843,37.629a.327.327,0,0,1-.2-.068.106.106,0,0,1-.044-.087.286.286,0,0,1,.084-.187.325.325,0,0,1,.193-.088l.171-.018a1.371,1.371,0,0,0,.2-.031l.04-.007h.025a.291.291,0,0,1,.28.192.106.106,0,0,1-.015.091.327.327,0,0,1-.229.136l-.091.017a.859.859,0,0,1-.106.016l-.251.028Z" fill="#d7df23"/>
      <path id="Path_218" data-name="Path 218" d="M29.838,36.772c0,.008.383.072.383.072a.893.893,0,0,1,.743.9v.017a.818.818,0,0,1-1.012.7l-.236-.041c-.117-.019-.232-.047-.232-.047a.827.827,0,0,1-.679-1.028l.005-.016a.884.884,0,0,1,1.028-.553Z" fill="#2e8572"/>
      <path id="Path_219" data-name="Path 219" d="M29.827,37.56a.424.424,0,0,1-.072-.007l-.228-.04c-.106-.017-.2-.039-.2-.039a.344.344,0,0,1-.233-.152.112.112,0,0,1-.016-.085l.011-.03a.269.269,0,0,1,.257-.156.3.3,0,0,1,.06.007h0c.106.028.237.05.42.08a.286.286,0,0,1,.24.277C30.057,37.487,29.967,37.56,29.827,37.56Z" fill="#d7df23"/>
      <path id="Path_220" data-name="Path 220" d="M27.7,35.953l.173.094c.085.049.173.091.173.091a.884.884,0,0,1,.452,1.076l-.007.015a.822.822,0,0,1-1.174.373s-.106-.051-.212-.106l-.212-.113a.821.821,0,0,1-.353-1.178l.01-.014a.889.889,0,0,1,1.151-.238Z" fill="#2e8572"/>
      <path id="Path_221" data-name="Path 221" d="M27.458,36.8a.394.394,0,0,1-.171-.043,1.718,1.718,0,0,1-.18-.094l-.212-.12a.337.337,0,0,1-.168-.2.106.106,0,0,1,.011-.084.273.273,0,0,1,.222-.115.29.29,0,0,1,.145.037l.18.1c.094.054.2.106.2.106a.275.275,0,0,1,.142.327A.17.17,0,0,1,27.458,36.8Z" fill="#d7df23"/>
      <path id="Path_222" data-name="Path 222" d="M25.9,34.555c-.007.008.275.277.275.277a.925.925,0,0,1,.275.557.857.857,0,0,1-.159.6l-.01.013a.71.71,0,0,1-.565.283.925.925,0,0,1-.665-.271s-.345-.329-.335-.337a.84.84,0,0,1,.007-1.23l.013-.01A.867.867,0,0,1,25.9,34.555Z" fill="#2e8572"/>
      <path id="Path_223" data-name="Path 223" d="M25.407,35.381a.329.329,0,0,1-.226-.092c-.01-.011-.18-.169-.262-.257l-.044-.05a.4.4,0,0,1-.115-.287.079.079,0,0,1,.028-.06l.025-.019a.266.266,0,0,1,.149-.043.232.232,0,0,1,.18.073v-.016a2.781,2.781,0,0,0,.319.338.319.319,0,0,1,.088.18.258.258,0,0,1-.038.18.113.113,0,0,1-.094.056Z" fill="#d7df23"/>
      <path id="Path_224" data-name="Path 224" d="M24.571,32.678l.18.353a.849.849,0,0,1-.2,1.147l-.013.01a.847.847,0,0,1-1.191-.326l-.212-.416a.992.992,0,0,1-.094-.7.743.743,0,0,1,.425-.476l.015-.007a.811.811,0,0,1,.619,0A.863.863,0,0,1,24.571,32.678Z" fill="#2e8572"/>
      <path id="Path_225" data-name="Path 225" d="M23.82,33.413a.36.36,0,0,1-.26-.168l-.2-.383a.391.391,0,0,1-.047-.265.131.131,0,0,1,.073-.074.18.18,0,0,1,.076-.019.306.306,0,0,1,.106.022.281.281,0,0,1,.163.125l.2.386.02.03a.248.248,0,0,1-.066.319.09.09,0,0,1-.065.028Z" fill="#d7df23"/>
      <path id="Path_226" data-name="Path 226" d="M23.741,30.5l.106.388a.955.955,0,0,1,.023.327.8.8,0,0,1-.069.3.812.812,0,0,1-.446.435l-.015.005a.743.743,0,0,1-.637-.05.973.973,0,0,1-.271-.223.984.984,0,0,1-.16-.338l-.12-.45a1.046,1.046,0,0,1-.033-.371.917.917,0,0,1,.12-.329.743.743,0,0,1,.521-.363h.016a.8.8,0,0,1,.6.149.849.849,0,0,1,.212.226A.869.869,0,0,1,23.741,30.5Z" fill="#2e8572"/>
      <path id="Path_227" data-name="Path 227" d="M22.775,31.1a.173.173,0,0,1-.08-.023.379.379,0,0,1-.106-.086h0a.836.836,0,0,1-.04-.106l-.12-.443a.49.49,0,0,1-.017-.139.333.333,0,0,1,.038-.094.136.136,0,0,1,.1-.076l.044-.005a.212.212,0,0,1,.12.044.307.307,0,0,1,.065.071l.023.033a.232.232,0,0,1,.043.084l.106.388a.335.335,0,0,1,.005.12.26.26,0,0,1-.02.106.212.212,0,0,1-.106.113.138.138,0,0,1-.056.013Z" fill="#d7df23"/>
      <path id="Path_228" data-name="Path 228" d="M23.426,28.181l.025.4a.871.871,0,0,1-.2.606.785.785,0,0,1-.531.319H22.7a.761.761,0,0,1-.61-.192.979.979,0,0,1-.279-.644l-.029-.464a.846.846,0,0,1,.836-.9h.016a.859.859,0,0,1,.787.875Z" fill="#2e8572"/>
      <path id="Path_229" data-name="Path 229" d="M22.306,28.609a.174.174,0,0,1-.113-.05.406.406,0,0,1-.073-.225l-.026-.437c.008-.175.106-.286.18-.286a.254.254,0,0,1,.244.258v.049l.025.4a.279.279,0,0,1-.067.188.212.212,0,0,1-.138.1Z" fill="#d7df23"/>
      <path id="Path_230" data-name="Path 230" d="M23.649,25.84s-.022.1-.046.2a1.284,1.284,0,0,0-.029.2.871.871,0,0,1-.916.743h-.016a.834.834,0,0,1-.682-1.01s.013-.115.034-.228.05-.225.05-.225a.831.831,0,0,1,.991-.706l.016.005a.874.874,0,0,1,.6,1.024Z" fill="#2e8572"/>
      <path id="Path_231" data-name="Path 231" d="M22.4,26.077a.106.106,0,0,1-.085-.044.383.383,0,0,1-.06-.283c0-.02.013-.106.029-.2l.047-.2c.039-.176.149-.259.212-.259l.032.007a.269.269,0,0,1,.18.305l-.044.2c-.029.146-.041.274-.041.274a.265.265,0,0,1-.251.2Z" fill="#d7df23"/>
      <path id="Path_232" data-name="Path 232" d="M24.3,23.684l-.155.378a.849.849,0,0,1-1.028.568H23.1a.848.848,0,0,1-.493-1.122l.172-.425a.974.974,0,0,1,.467-.517.754.754,0,0,1,.637,0l.015.007a.8.8,0,0,1,.41.469.883.883,0,0,1-.008.643Z" fill="#2e8572"/>
      <path id="Path_233" data-name="Path 233" d="M23.026,23.751a.24.24,0,0,1-.055-.007.12.12,0,0,1-.083-.067.375.375,0,0,1-.016-.273l.163-.4a.37.37,0,0,1,.168-.2.131.131,0,0,1,.055-.011.134.134,0,0,1,.06.013.2.2,0,0,1,.113.131.279.279,0,0,1,0,.212l-.164.4-.007.025a.251.251,0,0,1-.23.172Z" fill="#d7df23"/>
      <path id="Path_234" data-name="Path 234" d="M25.369,21.547l-.212.352a1,1,0,0,1-.494.412.8.8,0,0,1-.624-.032l-.014-.007a.743.743,0,0,1-.392-.5.871.871,0,0,1,.106-.688l.232-.393a.877.877,0,0,1,.55-.425.755.755,0,0,1,.624.106l.014.008a.874.874,0,0,1,.211,1.163Z" fill="#2e8572"/>
      <path id="Path_235" data-name="Path 235" d="M24.081,21.449a.16.16,0,0,1-.076-.017.145.145,0,0,1-.088-.106.276.276,0,0,1,.031-.218l.24-.4a.283.283,0,0,1,.168-.145.261.261,0,0,1,.065-.01.133.133,0,0,1,.076.022.289.289,0,0,1,.036.381l-.2.337a.381.381,0,0,1-.18.152.212.212,0,0,1-.071.008Z" fill="#d7df23"/>
      <path id="Path_236" data-name="Path 236" d="M26.772,19.592l-.257.319a.9.9,0,0,1-.563.326.784.784,0,0,1-.607-.128l-.013-.01a.77.77,0,0,1-.312-.555.955.955,0,0,1,.218-.656l.283-.355a.84.84,0,0,1,1.21-.138l.011.011a.865.865,0,0,1,.028,1.186Z" fill="#2e8572"/>
      <path id="Path_237" data-name="Path 237" d="M25.494,19.346a.167.167,0,0,1-.1-.03.17.17,0,0,1-.076-.134.356.356,0,0,1,.09-.218l.283-.355a.334.334,0,0,1,.23-.106.12.12,0,0,1,.083.028.263.263,0,0,1,.005.36l-.274.344a.3.3,0,0,1-.187.106.331.331,0,0,1-.058,0Z" fill="#d7df23"/>
      <path id="Path_238" data-name="Path 238" d="M28.463,17.921l-.309.26a.872.872,0,0,1-1.178,0l-.011-.011a.83.83,0,0,1,.115-1.216l.355-.3a.9.9,0,0,1,.674-.212.728.728,0,0,1,.547.319l.01.014a.826.826,0,0,1,.12.614.955.955,0,0,1-.323.531Z" fill="#2e8572"/>
      <path id="Path_239" data-name="Path 239" d="M27.245,17.5a.2.2,0,0,1-.148-.06.148.148,0,0,1-.044-.116.308.308,0,0,1,.116-.212l.352-.3a.3.3,0,0,1,.2-.076c.094.007.12.04.125.052a.245.245,0,0,1,.038.18.386.386,0,0,1-.134.2l-.293.245a.335.335,0,0,1-.215.079Z" fill="#d7df23"/>
      <path id="Path_240" data-name="Path 240" d="M30.423,16.7l-.355.16a.874.874,0,0,1-1.135-.284l-.008-.014a.833.833,0,0,1,.4-1.161l.435-.2a1.115,1.115,0,0,1,.37-.1.912.912,0,0,1,.352.066.72.72,0,0,1,.434.463l.005.016a.84.84,0,0,1-.06.62.881.881,0,0,1-.18.24.8.8,0,0,1-.259.188Z" fill="#2e8572"/>
      <path id="Path_241" data-name="Path 241" d="M29.357,16.058a.259.259,0,0,1-.22-.113.106.106,0,0,1-.015-.094.36.36,0,0,1,.176-.212l.413-.188a.505.505,0,0,1,.164-.044.686.686,0,0,1,.085.025.112.112,0,0,1,.076.074.253.253,0,0,1-.017.187.288.288,0,0,1-.06.079l-.023.025a.2.2,0,0,1-.066.048l-.373.168-.02.011a.25.25,0,0,1-.121.035Z" fill="#d7df23"/>
      <path id="Path_242" data-name="Path 242" d="M32.58,16.169l-.188.011a1.5,1.5,0,0,0-.188.016.88.88,0,0,1-.965-.637v-.016c-.124-.439.225-.868.776-.967a.424.424,0,0,1,.076-.01l.168-.011.244-.016a.811.811,0,0,1,.926.825v.017A.908.908,0,0,1,32.58,16.169Z" fill="#2e8572"/>
      <path id="Path_243" data-name="Path 243" d="M31.764,15.3a.3.3,0,0,1-.246-.212.066.066,0,0,1,.007-.065.436.436,0,0,1,.289-.157l.425-.029a.342.342,0,0,1,.257.09.08.08,0,0,1,.026.06v.031a.3.3,0,0,1-.269.24l-.2.013a2.123,2.123,0,0,0-.268.028h0Z" fill="#d7df23"/>
      <path id="Path_244" data-name="Path 244" d="M34.769,16.484s-.091-.031-.185-.056l-.185-.053a.9.9,0,0,1-.652-.96V15.4a.816.816,0,0,1,1.08-.6l.232.067c.117.033.23.071.23.071a.977.977,0,0,1,.553.468.728.728,0,0,1,.008.637l-.007.015a.829.829,0,0,1-.463.416.868.868,0,0,1-.613.014Z" fill="#2e8572"/>
      <path id="Path_245" data-name="Path 245" d="M34.735,15.625a.12.12,0,0,1-.047-.007l-.031-.011s-.106-.036-.212-.066l-.18-.051a.3.3,0,0,1-.218-.309c.008-.065.094-.12.212-.12a.44.44,0,0,1,.116.016l.222.064c.106.03.2.06.206.064a.4.4,0,0,1,.2.149.128.128,0,0,1,.01.12.24.24,0,0,1-.141.128.411.411,0,0,1-.134.021Z" fill="#d7df23"/>
      <path id="Path_246" data-name="Path 246" d="M36.776,17.548l-.156-.12-.163-.106a.889.889,0,0,1-.313-1.121l.007-.014a.82.82,0,0,1,1.21-.223l.2.131.189.14a1.086,1.086,0,0,1,.262.275.949.949,0,0,1,.12.33.72.72,0,0,1-.173.6l-.011.011a.849.849,0,0,1-.568.269.821.821,0,0,1-.309-.036.8.8,0,0,1-.293-.139Z" fill="#2e8572"/>
      <path id="Path_247" data-name="Path 247" d="M37.013,16.814a.228.228,0,0,1-.068-.011l-.035-.01a.212.212,0,0,1-.076-.035l-.173-.128-.18-.12a.283.283,0,0,1-.106-.35.153.153,0,0,1,.143-.069.344.344,0,0,1,.191.064l.19.127.176.131a.475.475,0,0,1,.106.106.334.334,0,0,1,.037.106.106.106,0,0,1-.025.106.243.243,0,0,1-.171.082Z" fill="#d7df23"/>
      <path id="Path_248" data-name="Path 248" d="M38.425,19.155l-.247-.309a.856.856,0,0,1-.218-.586.818.818,0,0,1,.222-.581l.011-.011a.734.734,0,0,1,.6-.22.987.987,0,0,1,.631.335l.3.366a.823.823,0,0,1-.127,1.222l-.014.008A.889.889,0,0,1,38.425,19.155Z" fill="#2e8572"/>
      <path id="Path_249" data-name="Path 249" d="M38.832,18.592a.3.3,0,0,1-.232-.113l-.268-.329-.015-.016a.278.278,0,0,1-.056-.18.224.224,0,0,1,.053-.157.137.137,0,0,1,.106-.048.374.374,0,0,1,.233.13l.281.349a.331.331,0,0,1,.072.25.106.106,0,0,1-.043.074.244.244,0,0,1-.133.04Z" fill="#d7df23"/>
      <path id="Path_250" data-name="Path 250" d="M39.571,21.137l-.155-.356a.889.889,0,0,1,.329-1.121l.014-.008A.822.822,0,0,1,40.9,20.1l.1.218c.048.106.094.218.094.218a.988.988,0,0,1,0,.728.713.713,0,0,1-.484.413h-.016a.9.9,0,0,1-1.02-.548Z" fill="#2e8572"/>
      <path id="Path_251" data-name="Path 251" d="M40.1,20.8a.265.265,0,0,1-.127-.034.281.281,0,0,1-.127-.12l-.008-.026-.167-.381a.287.287,0,0,1,.088-.36.1.1,0,0,1,.06-.02.3.3,0,0,1,.237.2l.173.4a.4.4,0,0,1,.013.262c-.029.06-.06.071-.077.074a.2.2,0,0,1-.06.01Z" fill="#d7df23"/>
      <path id="Path_252" data-name="Path 252" d="M39.942,23.256s.007-.088.014-.176a1.177,1.177,0,0,0-.005-.18A.689.689,0,0,1,40,22.607a.988.988,0,0,1,.138-.265A.884.884,0,0,1,40.67,22h.015a.692.692,0,0,1,.6.171.83.83,0,0,1,.212.293,1.2,1.2,0,0,1,.084.395,2.155,2.155,0,0,1,0,.254l-.017.255a1.043,1.043,0,0,1-.106.4.991.991,0,0,1-.237.289.65.65,0,0,1-.614.131H40.6a.945.945,0,0,1-.664-.926Z" fill="#2e8572"/>
      <path id="Path_253" data-name="Path 253" d="M40.489,23.3a.373.373,0,0,1-.193-.145.186.186,0,0,1-.029-.06.6.6,0,0,1-.025-.106l.014-.17a1.838,1.838,0,0,0,0-.265.093.093,0,0,1,.008-.032.665.665,0,0,1,.052-.116.293.293,0,0,1,.167-.12h.034a.1.1,0,0,1,.067.033.258.258,0,0,1,.06.068.6.6,0,0,1,.039.2,1.651,1.651,0,0,1,0,.2l-.017.244a.439.439,0,0,1-.032.155.378.378,0,0,1-.084.106c-.007,0-.029.022-.041.022Z" fill="#d7df23"/>
      <path id="Path_254" data-name="Path 254" d="M39.274,24.955a1.411,1.411,0,0,0,.106-.128c.025-.033.051-.066.071-.09l.028-.044a.862.862,0,0,1,.451-.319.985.985,0,0,1,.619,0h.016a.65.65,0,0,1,.425.476.971.971,0,0,1-.163.77l-.047.069-.112.145c-.08.106-.17.2-.17.2a.955.955,0,0,1-.706.344.652.652,0,0,1-.565-.3l-.01-.014a.986.986,0,0,1-.146-.6,1.117,1.117,0,0,1,.06-.279.809.809,0,0,1,.142-.236Z" fill="#2e8572"/>
      <path id="Path_255" data-name="Path 255" d="M39.471,25.475a.049.049,0,0,1-.047-.025.407.407,0,0,1-.055-.25.509.509,0,0,1,.02-.092.268.268,0,0,1,.026-.05,2.21,2.21,0,0,0,.148-.18l.07-.088.044-.065a.291.291,0,0,1,.138-.079.475.475,0,0,1,.137-.021.279.279,0,0,1,.088.014c.034.011.044.018.051.048a.378.378,0,0,1-.073.291l-.038.055-.1.128a2.087,2.087,0,0,1-.135.163.392.392,0,0,1-.254.149Z" fill="#d7df23"/>
      <path id="Path_256" data-name="Path 256" d="M37.68,25.758a1.545,1.545,0,0,0,.287-.025.82.82,0,0,1,.25,0,1.288,1.288,0,0,1,.261.089,1.02,1.02,0,0,1,.457.415l.007.014a.637.637,0,0,1-.01.637.809.809,0,0,1-.265.283,1.02,1.02,0,0,1-.42.168,3.433,3.433,0,0,1-.573.049,1.016,1.016,0,0,1-.453-.1,1.062,1.062,0,0,1-.18-.106.97.97,0,0,1-.131-.143.637.637,0,0,1-.1-.639v-.015a1.046,1.046,0,0,1,.4-.475.792.792,0,0,1,.117-.064.922.922,0,0,1,.117-.06.733.733,0,0,1,.24-.033Z" fill="#2e8572"/>
      <path id="Path_257" data-name="Path 257" d="M37.38,26.485a.451.451,0,0,1-.189-.034.689.689,0,0,1-.073-.038.368.368,0,0,1-.026-.031.143.143,0,0,1-.023-.041.453.453,0,0,1,.176-.212l.035-.015.076-.044h.038a1.565,1.565,0,0,0,.374-.039h0a.184.184,0,0,1,.034,0,.571.571,0,0,1,.115.039.4.4,0,0,1,.184.154c.021.04.015.051.011.056a.218.218,0,0,1-.072.083l-.029.019a.386.386,0,0,1-.168.06l-.094.016c-.084.01-.212.021-.291.025Z" fill="#d7df23"/>
      <path id="Path_258" data-name="Path 258" d="M36.112,24.9l.037.046.086.085.125.124a1.045,1.045,0,0,1,.166.223.849.849,0,0,1,.077.28.97.97,0,0,1-.084.6l-.007.014a.671.671,0,0,1-.54.36.966.966,0,0,1-.37-.06.926.926,0,0,1-.36-.222s-.37-.36-.356-.365a.82.82,0,0,1,.066-1.238l.013-.01a.893.893,0,0,1,1.147.164Z" fill="#2e8572"/>
      <path id="Path_259" data-name="Path 259" d="M35.621,25.725a.4.4,0,0,1-.116-.025.347.347,0,0,1-.12-.065l-.021-.022s-.164-.159-.258-.255l-.06-.073a.341.341,0,0,1-.1-.254.124.124,0,0,1,.044-.085.228.228,0,0,1,.138-.046.319.319,0,0,1,.227.1l.046.055.218.212a.78.78,0,0,1,.06.076.268.268,0,0,1,.019.083l.005.033a.364.364,0,0,1-.026.218.068.068,0,0,1-.06.048Z" fill="#d7df23"/>
      <path id="Path_260" data-name="Path 260" d="M34.762,22.916,35,23.29a.857.857,0,0,1-.212,1.176l-.014.01a.847.847,0,0,1-1.162-.319l-.225-.36a.869.869,0,0,1,.187-1.168l.013-.011a.832.832,0,0,1,1.181.3Z" fill="#2e8572"/>
      <path id="Path_261" data-name="Path 261" d="M34.063,23.686a.306.306,0,0,1-.243-.154l-.228-.365a.269.269,0,0,1,.039-.363.1.1,0,0,1,.07-.025.319.319,0,0,1,.246.157l.232.373a.257.257,0,0,1-.037.35.124.124,0,0,1-.08.028Z" fill="#d7df23"/>
      <path id="Path_262" data-name="Path 262" d="M32.88,20.767l.218.161.149.113a.661.661,0,0,1,.065.052.815.815,0,0,1,.074,1.26l-.013.011a.922.922,0,0,1-1.136-.035l-.261-.2a.686.686,0,0,1-.187-.175,1.593,1.593,0,0,1-.123-.248,1.015,1.015,0,0,1-.046-.611v-.016a.649.649,0,0,1,.452-.46.743.743,0,0,1,.388-.014,1.061,1.061,0,0,1,.42.161Z" fill="#2e8572"/>
      <path id="Path_263" data-name="Path 263" d="M32.524,21.634a.624.624,0,0,1-.168-.038l-.034-.037-.289-.212-.06-.048-.052-.12a.407.407,0,0,1-.02-.229c.007-.025.01-.036.055-.051h.025a.469.469,0,0,1,.08.008.458.458,0,0,1,.149.05l.389.292a.364.364,0,0,1,.137.261.1.1,0,0,1-.025.066.275.275,0,0,1-.18.065Z" fill="#d7df23"/>
      <path id="Path_264" data-name="Path 264" d="M29.677,20.471s.128-.06.261-.106l.276-.082a.991.991,0,0,1,.833.136.617.617,0,0,1,.251.592v.016a1.125,1.125,0,0,1-.265.553.811.811,0,0,1-.409.287l-.141.04c-.07.026-.139.06-.139.06a.91.91,0,0,1-.531.037,1,1,0,0,1-.54-.3l-.011-.011a.646.646,0,0,1-.134-.624.955.955,0,0,1,.548-.595Z" fill="#2e8572"/>
      <path id="Path_265" data-name="Path 265" d="M29.729,21.116a.557.557,0,0,1-.106-.011.381.381,0,0,1-.2-.1c-.031-.035-.026-.048-.023-.06a.365.365,0,0,1,.212-.212c.015-.007.106-.05.212-.088l.257-.076a.5.5,0,0,1,.106-.011.34.34,0,0,1,.187.046h0l.021.033a.565.565,0,0,1-.145.273.28.28,0,0,1-.083.072l-.18.052-.025.008c-.087.034-.174.074-.18.076h0a.4.4,0,0,1-.055,0Z" fill="#d7df23"/>
      <path id="Path_266" data-name="Path 266" d="M27.545,22.68s.013-.031.033-.076l.082-.161c.06-.117.125-.232.125-.232a.991.991,0,0,1,.619-.472.675.675,0,0,1,.616.175l.011.011a.933.933,0,0,1,.265.559.84.84,0,0,1-.1.555s-.041.074-.08.149l-.054.106a.41.41,0,0,0-.02.049.835.835,0,0,1-.391.4.944.944,0,0,1-.606.116h-.016a.67.67,0,0,1-.505-.394A1,1,0,0,1,27.545,22.68Z" fill="#2e8572"/>
      <path id="Path_267" data-name="Path 267" d="M27.877,22.962a.221.221,0,0,1-.037,0c-.03,0-.048-.007-.071-.06a.414.414,0,0,1,.028-.277l.028-.064.073-.143c.053-.106.106-.206.112-.212a.388.388,0,0,1,.222-.18h.019a.053.053,0,0,1,.044.017.329.329,0,0,1,.1.212.245.245,0,0,1-.02.173c-.008.016-.055.1-.1.186l-.051.1c-.019.038-.032.069-.041.092a.24.24,0,0,1-.115.106.4.4,0,0,1-.189.049Z" fill="#d7df23"/>
      <path id="Path_268" data-name="Path 268" d="M27.316,25.68l-.09-.5a.984.984,0,0,1,.188-.743.652.652,0,0,1,.575-.259h.016a.964.964,0,0,1,.57.259.849.849,0,0,1,.18.235,1.32,1.32,0,0,1,.088.279l.065.355a.91.91,0,0,1-.521,1.024l-.015.007a.685.685,0,0,1-.631-.052.987.987,0,0,1-.428-.606Z" fill="#2e8572"/>
      <path id="Path_269" data-name="Path 269" d="M27.8,25.489a.067.067,0,0,1-.029-.007.388.388,0,0,1-.166-.229l-.088-.48A.389.389,0,0,1,27.6,24.5a.047.047,0,0,1,.038-.017.36.36,0,0,1,.235.106.218.218,0,0,1,.046.06.578.578,0,0,1,.025.089l.011.041.065.36.005.021a.312.312,0,0,1-.176.319.131.131,0,0,1-.046.007Z" fill="#d7df23"/>
      <path id="Path_270" data-name="Path 270" d="M28.5,28.245l-.262-.392a1.033,1.033,0,0,1-.128-.712.727.727,0,0,1,.4-.5l.015-.007a.835.835,0,0,1,.619-.025.816.816,0,0,1,.486.382l.22.328a.883.883,0,0,1-.141,1.168l-.013.011a.72.72,0,0,1-.611.145.91.91,0,0,1-.585-.4Z" fill="#2e8572"/>
      <path id="Path_271" data-name="Path 271" d="M28.936,27.754a.154.154,0,0,1-.037,0,.3.3,0,0,1-.194-.133l-.258-.385a.425.425,0,0,1-.054-.269.113.113,0,0,1,.06-.073.218.218,0,0,1,.1-.023.328.328,0,0,1,.1.016.24.24,0,0,1,.146.106l.011.021.233.349a.28.28,0,0,1-.023.364.115.115,0,0,1-.077.028Z" fill="#d7df23"/>
      <path id="Path_272" data-name="Path 272" d="M30.24,30.293l-.319-.326a.827.827,0,0,1-.016-1.214l.011-.011a.88.88,0,0,1,1.184.092l.287.3a.863.863,0,0,1,.076,1.181l-.011.011a.84.84,0,0,1-1.213-.034Z" fill="#2e8572"/>
      <path id="Path_273" data-name="Path 273" d="M30.587,29.661a.325.325,0,0,1-.223-.1l-.308-.319a.308.308,0,0,1-.106-.23.134.134,0,0,1,.038-.1.22.22,0,0,1,.149-.06.334.334,0,0,1,.233.106l.278.287a.269.269,0,0,1,.06.36.163.163,0,0,1-.12.051Z" fill="#d7df23"/>
      <path id="Path_274" data-name="Path 274" d="M32.245,32.021l-.18-.133-.176-.143a.835.835,0,0,1-.188-1.2l.011-.013a.867.867,0,0,1,1.186-.071l.161.131.168.12a.865.865,0,0,1,.236,1.168l-.008.014a.84.84,0,0,1-1.209.128Z" fill="#2e8572"/>
      <path id="Path_275" data-name="Path 275" d="M32.515,31.3a.383.383,0,0,1-.22-.079l-.168-.125-.164-.133a.36.36,0,0,1-.14-.233.115.115,0,0,1,.025-.092.24.24,0,0,1,.185-.082.275.275,0,0,1,.175.06l.174.142.18.131a.262.262,0,0,1,.086.342.153.153,0,0,1-.135.068Z" fill="#d7df23"/>
      <path id="Path_276" data-name="Path 276" d="M41.29,28.514a1.191,1.191,0,0,0-1.19-1.191v2.382a1.19,1.19,0,0,0,1.19-1.191Z" fill="#f7941e"/>
      <path id="Path_277" data-name="Path 277" d="M38.906,28.514A1.191,1.191,0,0,0,40.1,29.705V27.324A1.191,1.191,0,0,0,38.906,28.514Z" fill="#fbb040"/>
      <path id="Path_278" data-name="Path 278" d="M41.5,31.86a2.51,2.51,0,0,0-1.391-2.244l-.014-.007v4.663H41.5Z" fill="#fbb040"/>
      <path id="Path_279" data-name="Path 279" d="M40.084,29.614A2.508,2.508,0,0,0,38.7,31.86v2.412h1.4V29.606Z" fill="#ffd97b"/>
    </g>
  </g>
</svg>
