<svg xmlns="http://www.w3.org/2000/svg" xmlns:xlink="http://www.w3.org/1999/xlink" width="24" height="24" viewBox="0 0 24 24">
  <defs>
    <clipPath id="clip-path">
      <rect id="Rectangle_204" data-name="Rectangle 204" width="24" height="24" transform="translate(186 336.6)" fill="#5b5b5b" stroke="#e0e1e3" stroke-width="1.2"/>
    </clipPath>
  </defs>
  <g id="qesas-icon" transform="translate(-186 -336.6)" clip-path="url(#clip-path)">
    <g id="stories-01_1_" data-name="stories-01 (1)" transform="translate(177.693 331.678)">
      <path id="Path_280" data-name="Path 280" d="M31.607,13.84l.7-.014v.049a5.7,5.7,0,0,0-.947.791c-.474.449-.947.908-1.392,1.386a14.4,14.4,0,0,1-2.54,2.089A8.426,8.426,0,0,1,24.9,19.319c-.037.009-.075.016-.112.027l-2.138.62c0-.1.081-.149.143-.2.254-.229.514-.45.768-.677.7-.629,1.447-1.2,2.182-1.781s1.46-1.13,2.185-1.7c.088-.068.2-.136.207-.271a1.985,1.985,0,0,0,.215-.089,12.225,12.225,0,0,1,3.16-1.32C31.556,13.91,31.592,13.893,31.607,13.84Z" fill="#2e8572"/>
      <path id="Path_281" data-name="Path 281" d="M22.645,19.966l2.138-.619c.037-.011.074-.018.112-.027,0,1.616.011,3.232,0,4.847a2.072,2.072,0,0,1-.627,1.579c-.163.152-.265.12-.382-.019a2.149,2.149,0,0,1-.577-1.366c0-.136-.052-.184-.18-.173-.06.005-.125,0-.187,0l-10.515,0q0-3.245,0-6.49V9.634A2.1,2.1,0,0,1,14.473,7.5q5.94-.007,11.88,0a.73.73,0,0,1,.094,0c-.132.18-.364.169-.54.277A1.963,1.963,0,0,0,24.9,9.464c-.02.567,0,1.136,0,1.7-.1,0-.2.01-.3.01h-9.2a1.582,1.582,0,0,0-.326.026.312.312,0,0,0-.258.319.329.329,0,0,0,.233.338.908.908,0,0,0,.325.031h9.228c.1,0,.2.006.3.01v3.613a.42.42,0,0,1-.051.047,5.67,5.67,0,0,0-2.166,2.566,8.64,8.64,0,0,0-.48,1.334,1.182,1.182,0,0,1-.12.169c-.379.373-.7.8-1.054,1.191a4.2,4.2,0,0,0-.913,1.946,4.832,4.832,0,0,0,1.194-1.147,7.05,7.05,0,0,1,.548-.812,2.9,2.9,0,0,1,.789-.843Zm-3.655-4.492H22.81a.325.325,0,0,0,.347-.312.349.349,0,0,0-.3-.38,1.073,1.073,0,0,0-.187-.008H15.309a.641.641,0,0,0-.3.042.328.328,0,0,0-.2.364.31.31,0,0,0,.286.292,1.585,1.585,0,0,0,.234.007Zm-1.251,2.9H16.454c-.429,0-.859,0-1.286,0a.326.326,0,0,0-.353.326.341.341,0,0,0,.316.368,1.226,1.226,0,0,0,.187.007H20.14a.991.991,0,0,0,.254-.025.344.344,0,0,0-.053-.673,1.549,1.549,0,0,0-.21-.006ZM17,21.949H15.286c-.308,0-.48.131-.488.355s.175.366.5.371h3.325a1.173,1.173,0,0,0,.323-.04.306.306,0,0,0,.232-.316.326.326,0,0,0-.24-.338.834.834,0,0,0-.277-.034H17Z" fill="#e3dccd"/>
      <path id="Path_282" data-name="Path 282" d="M12.424,24.18l10.515,0c.06,0,.125,0,.187,0,.128-.011.18.039.18.173a2.149,2.149,0,0,0,.577,1.366c.116.136.218.171.382.019a2.073,2.073,0,0,0,.627-1.579c.014-1.616,0-3.231,0-4.847a8.46,8.46,0,0,0,2.532-1.178c0,2.023,0,4.045,0,6.067a2.084,2.084,0,0,1-.493,1.4,2.029,2.029,0,0,1-1.62.735q-4.885.009-9.769,0H10.44a2.04,2.04,0,0,1-1.233-.367,2.22,2.22,0,0,1-.9-1.65c-.016-.146.085-.139.18-.139H9.66Z" fill="#c7bfae"/>
      <path id="Path_283" data-name="Path 283" d="M24.9,15.515V11.9c.194-.006.388,0,.58-.023a.327.327,0,0,0,.318-.36.314.314,0,0,0-.317-.332c-.2-.017-.386-.018-.578-.026,0-.569-.017-1.14,0-1.7a1.966,1.966,0,0,1,1.008-1.68c.175-.108.406-.1.54-.277h2.576c-.012.107-.112.1-.18.12a2.027,2.027,0,0,0-1.417,2.03q0,2.373,0,4.747A12.272,12.272,0,0,0,24.9,15.509Z" fill="#e2d7c3"/>
      <path id="Path_284" data-name="Path 284" d="M24.9,15.515a12.272,12.272,0,0,1,2.527-1.11c.583-.123,1.157-.29,1.75-.37a14.684,14.684,0,0,1,2.43-.2c-.012.053-.048.068-.1.082a12.224,12.224,0,0,0-3.16,1.32,1.985,1.985,0,0,1-.215.089.935.935,0,0,0-.319.139,28.92,28.92,0,0,0-2.673,1.712c-.709.505-1.412,1.015-2.078,1.58a5.687,5.687,0,0,1-.862.7,8.64,8.64,0,0,1,.48-1.334,5.693,5.693,0,0,1,2.166-2.566.42.42,0,0,0,.053-.047Z" fill="#359d86"/>
      <path id="Path_285" data-name="Path 285" d="M27.43,9.66a2.024,2.024,0,0,1,1.417-2.03c.068-.02.165-.014.18-.12a2.45,2.45,0,0,1,1.424.266A2.174,2.174,0,0,1,31.5,9.522c.016.149-.089.136-.184.136H27.428Z" fill="#d7cebb"/>
      <path id="Path_286" data-name="Path 286" d="M22.2,19.462a5.688,5.688,0,0,0,.867-.7c.666-.563,1.369-1.075,2.078-1.58a28.92,28.92,0,0,1,2.669-1.714.935.935,0,0,1,.319-.139c-.01.136-.12.2-.207.271-.725.571-1.462,1.127-2.185,1.7s-1.483,1.151-2.182,1.781c-.254.229-.514.45-.768.677-.06.055-.139.106-.143.2a3.032,3.032,0,0,0-.794.844,7.051,7.051,0,0,0-.548.812,4.832,4.832,0,0,1-1.194,1.147,4.186,4.186,0,0,1,.912-1.944c.36-.391.677-.818,1.054-1.191a1.182,1.182,0,0,0,.122-.167Z" fill="#2e8572"/>
      <path id="Path_287" data-name="Path 287" d="M24.9,11.16c.193.008.386.01.578.026a.315.315,0,0,1,.317.332.322.322,0,0,1-.318.36c-.2.023-.386.017-.58.023-.1,0-.2-.01-.3-.01h-9.23a.908.908,0,0,1-.325-.031.329.329,0,0,1-.233-.338.312.312,0,0,1,.258-.319,1.582,1.582,0,0,1,.326-.026h9.2Z" fill="#fe8222"/>
      <path id="Path_288" data-name="Path 288" d="M18.991,15.47H15.336a1.585,1.585,0,0,1-.234-.007.31.31,0,0,1-.286-.292.328.328,0,0,1,.195-.364.641.641,0,0,1,.3-.042h7.355a1.073,1.073,0,0,1,.187.008.349.349,0,0,1,.3.38.328.328,0,0,1-.347.312c-.454,0-.906,0-1.359,0Z" fill="#eeb637"/>
      <path id="Path_289" data-name="Path 289" d="M17.74,18.368h2.388a1.55,1.55,0,0,1,.21.006.346.346,0,0,1,.056.676.992.992,0,0,1-.254.025H15.317a1.226,1.226,0,0,1-.187-.007.345.345,0,0,1-.316-.368.326.326,0,0,1,.353-.326c.429-.007.859,0,1.286,0Z" fill="#fe8120"/>
      <path id="Path_290" data-name="Path 290" d="M17,21.946H18.66a.834.834,0,0,1,.277.034.326.326,0,0,1,.24.338.306.306,0,0,1-.232.316,1.173,1.173,0,0,1-.323.04q-1.639,0-3.278,0H15.3c-.321,0-.5-.14-.5-.371s.18-.353.488-.355C15.859,21.944,16.428,21.946,17,21.946Z" fill="#eeb739"/>
    </g>
  </g>
</svg>
