<svg xmlns="http://www.w3.org/2000/svg" xmlns:xlink="http://www.w3.org/1999/xlink" width="24" height="24" viewBox="0 0 24 24">
  <defs>
    <clipPath id="clip-path">
      <rect id="Rectangle_204" data-name="Rectangle 204" width="24" height="24" transform="translate(171 349.8)" fill="#5b5b5b" stroke="#e0e1e3" stroke-width="1.2"/>
    </clipPath>
  </defs>
  <g id="quran-icon" transform="translate(-171 -349.8)" clip-path="url(#clip-path)">
    <g id="quran_icon-01" data-name="quran icon-01" transform="translate(155.343 339.453)">
      <path id="Path_119" data-name="Path 119" d="M21.252,12.347H35.2c.234.1.258.3.257.517V30.246a.354.354,0,0,1-.406.389c-.2,0-.4,0-.622,0v1.19c0,.426-.091.519-.51.519H20.379a1.411,1.411,0,0,1-.195,0,.325.325,0,0,1-.309-.3,2.546,2.546,0,0,1-.012-.272V15.7c0-.406-.013-.811.007-1.211a.95.95,0,0,1,.14-.45c.315-.487.65-.96.982-1.433a1.979,1.979,0,0,1,.259-.258Zm11.3,10.861q0-2.861,0-5.722a.473.473,0,0,0-.3-.5,1.574,1.574,0,0,1-.925-1.369c-.024-.281-.091-.35-.376-.35H23.338c-.291,0-.345.056-.375.35A1.605,1.605,0,0,1,22,17.008a.418.418,0,0,0-.273.437q.007,5.762,0,11.524a.406.406,0,0,0,.264.423,1.615,1.615,0,0,1,.974,1.421c.021.255.1.324.359.324H30.96c.269,0,.347-.076.367-.341a1.586,1.586,0,0,1,.95-1.392.432.432,0,0,0,.279-.453c-.006-1.915,0-3.829,0-5.743Zm2.2-10.177h-.264c-3.787,0-7.575.007-11.362-.011a.85.85,0,0,0-.915.487,4.437,4.437,0,0,1-.372.551h12.21a.342.342,0,0,1,.371.379V29.95h.332Z" transform="translate(0 0)" fill="#c1902d"/>
      <path id="Path_120" data-name="Path 120" d="M32.929,23.792q0,2.871,0,5.742a.433.433,0,0,1-.279.453,1.586,1.586,0,0,0-.95,1.392c-.02.264-.1.341-.367.341H23.7c-.263,0-.339-.07-.359-.324a1.618,1.618,0,0,0-.974-1.421.406.406,0,0,1-.264-.423q.007-5.762,0-11.524a.419.419,0,0,1,.273-.437,1.605,1.605,0,0,0,.961-1.388c.03-.294.081-.35.375-.35h7.617c.285,0,.35.07.376.35a1.574,1.574,0,0,0,.925,1.369.47.47,0,0,1,.3.5C32.926,19.976,32.929,21.883,32.929,23.792Zm-1.74,7.417a.681.681,0,0,0,.039-.1A2.15,2.15,0,0,1,32.3,29.588a.314.314,0,0,0,.113-.233q.008-5.565.007-11.132a.257.257,0,0,0-.15-.258,2.078,2.078,0,0,1-1.034-1.442c-.023-.117-.064-.162-.188-.162q-3.525.005-7.05,0c-.13,0-.172.041-.2.169a2.078,2.078,0,0,1-1.025,1.429.285.285,0,0,0-.167.288q.007,5.546,0,11.093a.275.275,0,0,0,.156.276,2.034,2.034,0,0,1,1.024,1.4c.034.162.1.2.254.2q3.477-.008,6.952,0Z" transform="translate(-0.374 -0.584)" fill="#fbcb34"/>
      <path id="Path_121" data-name="Path 121" d="M35.153,13.16V30.081h-.332V14.57a.341.341,0,0,0-.372-.38H22.235a4.437,4.437,0,0,0,.375-.556.855.855,0,0,1,.915-.487c3.788.018,7.576.011,11.362.011Z" transform="translate(-0.396 -0.131)" fill="#fff"/>
      <path id="Path_122" data-name="Path 122" d="M31.29,31.308H24.145c-.162,0-.22-.038-.254-.2a2.034,2.034,0,0,0-1.024-1.4.275.275,0,0,1-.156-.277q.007-5.547,0-11.093a.286.286,0,0,1,.167-.288A2.078,2.078,0,0,0,23.9,16.619c.026-.128.068-.169.2-.169q3.525.005,7.05,0c.124,0,.162.043.188.162a2.078,2.078,0,0,0,1.034,1.443.257.257,0,0,1,.15.258q-.005,5.566-.008,11.132a.314.314,0,0,1-.113.233A2.15,2.15,0,0,0,31.329,31.2a.681.681,0,0,1-.039.1Zm-3.65-3.264c.22-.207.425-.414.65-.6a3.45,3.45,0,0,1,.939-.7,1.6,1.6,0,0,0,.572-.422,2.228,2.228,0,0,0,.479-1.772.76.76,0,0,1,.07-.445.453.453,0,0,0,.023-.371,1.115,1.115,0,0,1-.081-.676,2.8,2.8,0,0,0-.007-.429,1.822,1.822,0,0,0-1.254-1.692.517.517,0,0,1-.176-.115c-.311-.283-.62-.568-.932-.854-.091-.081-.192-.15-.314-.243-.229.216-.438.439-.673.63a3.039,3.039,0,0,1-.9.66,1.456,1.456,0,0,0-.753.65,2.587,2.587,0,0,0-.311,1.579,2.422,2.422,0,0,1-.068.406c-.016.137-.067.3-.012.412a1.081,1.081,0,0,1,.081.582,3.05,3.05,0,0,0,.016.6,1.789,1.789,0,0,0,1.235,1.579.533.533,0,0,1,.177.113c.273.25.542.5.816.75.119.121.258.227.419.36Zm-.007,2.925a5.311,5.311,0,0,1,.5-.379.544.544,0,0,0,.307-.422,5.391,5.391,0,0,0-.007-.957.76.76,0,0,0-.243-.376c-.13-.13-.3-.22-.439-.344a.15.15,0,0,0-.243,0c-.139.124-.31.213-.438.345a.773.773,0,0,0-.243.394,4.45,4.45,0,0,0,0,.918A.577.577,0,0,0,27,30.5a7.246,7.246,0,0,0,.633.476Zm-.008-11.635c.2-.15.415-.293.617-.45a.421.421,0,0,0,.155-.216,3.794,3.794,0,0,0,.081-.65.935.935,0,0,0-.558-.987,1.171,1.171,0,0,1-.28-.25c-.226.162-.441.3-.629.461a.582.582,0,0,0-.2.341,5.392,5.392,0,0,0,0,.957.624.624,0,0,0,.21.354,7.039,7.039,0,0,0,.6.44Z" transform="translate(-0.475 -0.684)" fill="#c1902d"/>
      <path id="Path_123" data-name="Path 123" d="M28.064,28.7c-.162-.133-.3-.239-.428-.356-.274-.25-.543-.5-.816-.75a.532.532,0,0,0-.177-.113A1.789,1.789,0,0,1,25.407,25.9a3.05,3.05,0,0,1-.016-.6,1.037,1.037,0,0,0-.081-.582c-.055-.107,0-.274.012-.412a2.342,2.342,0,0,0,.068-.406,2.591,2.591,0,0,1,.31-1.579,1.456,1.456,0,0,1,.753-.65,3.039,3.039,0,0,0,.9-.66c.234-.191.444-.414.673-.63.121.093.223.162.314.243.312.282.621.568.932.854a.517.517,0,0,0,.181.115,1.829,1.829,0,0,1,1.254,1.692,2.8,2.8,0,0,1,.008.428,1.14,1.14,0,0,0,.081.676.453.453,0,0,1-.022.371.761.761,0,0,0-.07.445,2.225,2.225,0,0,1-.479,1.772,1.6,1.6,0,0,1-.572.422,3.45,3.45,0,0,0-.942.7C28.49,28.289,28.285,28.5,28.064,28.7Z" transform="translate(-0.904 -1.339)" fill="#fbcb34"/>
      <path id="Path_124" data-name="Path 124" d="M28.445,33.37c-.215-.158-.439-.3-.634-.473a.577.577,0,0,1-.182-.347,4.45,4.45,0,0,1,0-.918.808.808,0,0,1,.243-.394c.128-.132.3-.221.438-.345a.15.15,0,0,1,.243,0c.138.124.308.214.439.344a.746.746,0,0,1,.243.376,5.391,5.391,0,0,1,.006.957.544.544,0,0,1-.307.422,5.313,5.313,0,0,0-.491.379Z" transform="translate(-1.291 -3.081)" fill="#fbcb34"/>
      <path id="Path_125" data-name="Path 125" d="M28.439,19.406a7.04,7.04,0,0,1-.6-.436.624.624,0,0,1-.21-.354,5.391,5.391,0,0,1,0-.957.582.582,0,0,1,.2-.341c.187-.162.406-.3.629-.461a1.156,1.156,0,0,0,.28.25.939.939,0,0,1,.557.986,3.794,3.794,0,0,1-.081.65.421.421,0,0,1-.155.216C28.855,19.113,28.643,19.259,28.439,19.406Z" transform="translate(-1.292 -0.752)" fill="#fbcb34"/>
    </g>
  </g>
</svg>
