<svg xmlns="http://www.w3.org/2000/svg" xmlns:xlink="http://www.w3.org/1999/xlink" width="32" height="32" viewBox="0 0 32 32">
  <defs>
    <clipPath id="clip-path">
      <rect id="Rectangle_206" data-name="Rectangle 206" width="20" height="20" transform="translate(269 505)" fill="#505050" stroke="#707070" stroke-width="1"/>
    </clipPath>
  </defs>
  <g id="read-icon" transform="translate(-263 -499)">
    <circle id="Ellipse_1" data-name="Ellipse 1" cx="16" cy="16" r="16" transform="translate(263 499)" fill="#fff"/>
    <g id="read-icon-2" data-name="read-icon" clip-path="url(#clip-path)">
      <g id="Page-1" transform="translate(269 504.909)">
        <g id="_026---Open-Book" data-name="026---Open-Book">
          <path id="Shape" d="M20,7.143V7.5a.357.357,0,0,1-.357.357H18.036a.536.536,0,1,1,0-1.071h1.607A.357.357,0,0,1,20,7.143Zm0,1.786v.357a.357.357,0,0,1-.357.357H17.321a.536.536,0,0,1,0-1.071h2.321A.357.357,0,0,1,20,8.929Zm0,1.786v.357a.357.357,0,0,1-.357.357H18.036a.536.536,0,1,1,0-1.071h1.607A.357.357,0,0,1,20,10.714ZM17.5.54V2.088L11.464,5.107l-.011.008A.708.708,0,0,0,11.071,5h-.714V4.487c.028-.109.521-1.639,6.643-4.274a.357.357,0,0,1,.5.327ZM3,.212C9.3,2.923,9.639,4.464,9.643,4.464V5H8.929a.708.708,0,0,0-.382.113l-.011-.008L2.5,2.088V.54A.357.357,0,0,1,3,.212ZM0,7.143a.357.357,0,0,1,.357-.357H1.964a.536.536,0,1,1,0,1.071H.357A.357.357,0,0,1,0,7.5Zm2.5,3.75a.536.536,0,0,1-.536.536H.357A.357.357,0,0,1,0,11.071v-.357a.357.357,0,0,1,.357-.357H1.964A.536.536,0,0,1,2.5,10.893Zm.179-1.25H.357A.357.357,0,0,1,0,9.286V8.929a.357.357,0,0,1,.357-.357H2.679a.536.536,0,0,1,0,1.071ZM0,12.857V12.5a.357.357,0,0,1,.357-.357h1.25a.536.536,0,1,1,0,1.071H.357A.357.357,0,0,1,0,12.857Zm1.071,3.3V13.929h.464a1.3,1.3,0,0,0,1.321-1.217,1.238,1.238,0,0,0-.236-.759,1.229,1.229,0,0,0,.434-1.659,1.242,1.242,0,0,0,0-2.372,1.206,1.206,0,0,0,.089-1.009A1.3,1.3,0,0,0,1.91,6.071H1.071V2.75a.357.357,0,0,1,.518-.319l.407.2.012.006,6.206,3.1v14.2L1.269,16.474a.357.357,0,0,1-.2-.319ZM8.929,20V5.714h2.143V20Zm9.8-3.528-6.946,3.474V5.744l6.2-3.1.019-.01.4-.2a.357.357,0,0,1,.517.319V6.071H18.09a1.3,1.3,0,0,0-1.233.841,1.206,1.206,0,0,0,.089,1.009,1.242,1.242,0,0,0,0,2.372,1.229,1.229,0,0,0,.434,1.659,1.238,1.238,0,0,0-.237.759,1.3,1.3,0,0,0,1.321,1.217h.464v2.224a.357.357,0,0,1-.2.32ZM20,12.857a.357.357,0,0,1-.357.357h-1.25a.536.536,0,0,1,0-1.071h1.25A.357.357,0,0,1,20,12.5Z" fill="#2e8572"/>
        </g>
      </g>
    </g>
  </g>
</svg>
