<svg xmlns="http://www.w3.org/2000/svg" width="46" height="46" viewBox="0 0 46 46">
  <g id="rub-el-hizb-icon" transform="translate(-4.68 -4.68)">
    <path id="Path_164" data-name="Path 164" d="M40.481,22.023V14.878H33.337a.836.836,0,0,1-.605-.251L27.68,9.575l-5.052,5.052a.836.836,0,0,1-.605.251H14.878v7.145a.836.836,0,0,1-.251.605L9.575,27.68l5.052,5.052a.836.836,0,0,1,.251.605v7.145h7.145a.836.836,0,0,1,.605.251l5.052,5.052,5.052-5.052a.836.836,0,0,1,.605-.251h7.145V33.337a.836.836,0,0,1,.251-.605l5.052-5.052-5.052-5.052a.836.836,0,0,1-.251-.605Z" fill="#2e8572"/>
    <path id="Path_165" data-name="Path 165" d="M44.192,21.2a.871.871,0,0,1-.251-.614V11.418H34.772a.871.871,0,0,1-.614-.251L27.68,4.68,21.2,11.167a.871.871,0,0,1-.614.251H11.418v9.169a.871.871,0,0,1-.251.614L4.68,27.68l6.487,6.479a.871.871,0,0,1,.251.614v9.169h9.169a.871.871,0,0,1,.614.251L27.68,50.68l6.479-6.487a.871.871,0,0,1,.614-.251h9.169V34.772a.871.871,0,0,1,.251-.614L50.68,27.68ZM42.211,33.7v7.646a.867.867,0,0,1-.865.865H33.7l-5.406,5.406a.877.877,0,0,1-1.228,0l-5.406-5.406H14.013a.867.867,0,0,1-.865-.865V33.7L7.742,28.294a.872.872,0,0,1,0-1.228l5.406-5.406V14.013a.867.867,0,0,1,.865-.865h7.646l5.406-5.406a.872.872,0,0,1,1.228,0L33.7,13.148h7.646a.867.867,0,0,1,.865.865v7.646l5.406,5.406a.872.872,0,0,1,0,1.228Z" fill="#2e8572"/>
  </g>
</svg>
