<svg xmlns="http://www.w3.org/2000/svg" xmlns:xlink="http://www.w3.org/1999/xlink" width="24" height="24" viewBox="0 0 24 24">
  <defs>
    <clipPath id="clip-path">
      <rect id="Icon_Container" data-name="Icon Container" width="24" height="24" transform="translate(378 131)" fill="#6d6d6d"/>
    </clipPath>
  </defs>
  <g id="share-icon" transform="translate(-378 -131)" clip-path="url(#clip-path)">
    <g id="share" transform="translate(380.734 133.917)">
      <path id="Path_3053" data-name="Path 3053" d="M7.413,9.323a.531.531,0,0,1,.21-.722L13.6,5.276a.532.532,0,1,1,.512.932L8.135,9.533A.531.531,0,0,1,7.413,9.323Z" transform="translate(-1.603 -1.266)" fill="#7b8089"/>
      <path id="Path_3054" data-name="Path 3054" d="M13.6,17.314,7.623,13.99a.532.532,0,1,1,.512-.932l5.98,3.324a.532.532,0,1,1-.512.932Z" transform="translate(-1.603 -3.158)" fill="#6f747f"/>
      <path id="Path_3055" data-name="Path 3055" d="M3.943,14.168a3.193,3.193,0,1,1,3.193-3.193A3.2,3.2,0,0,1,3.943,14.168Z" transform="translate(0 -1.891)" fill="#40b198"/>
      <path id="Path_3056" data-name="Path 3056" d="M3.943,15.193A3.2,3.2,0,0,0,7.137,12H.75A3.2,3.2,0,0,0,3.943,15.193Z" transform="translate(0 -2.917)" fill="#2e8572"/>
      <path id="Path_3057" data-name="Path 3057" d="M18.006,6.387A3.193,3.193,0,1,1,21.2,3.193,3.2,3.2,0,0,1,18.006,6.387Z" transform="translate(-3.418)" fill="#40b198"/>
      <path id="Path_3058" data-name="Path 3058" d="M18.006,21.949A3.193,3.193,0,1,1,21.2,18.756,3.2,3.2,0,0,1,18.006,21.949Z" transform="translate(-3.418 -3.783)" fill="#2e8572"/>
    </g>
  </g>
</svg>
