<svg xmlns="http://www.w3.org/2000/svg" xmlns:xlink="http://www.w3.org/1999/xlink" width="24" height="24" viewBox="0 0 24 24">
  <defs>
    <clipPath id="clip-path">
      <rect id="Rectangle_204" data-name="Rectangle 204" width="24" height="24" transform="translate(192 349.8)" fill="#5b5b5b" stroke="#e0e1e3" stroke-width="1.2"/>
    </clipPath>
  </defs>
  <g id="yatem-icon" transform="translate(-192 -349.8)" clip-path="url(#clip-path)">
    <g id="orphan-01" transform="translate(180.271 342.725)">
      <path id="Path_758" data-name="Path 758" d="M14,27.758a10.773,10.773,0,0,1-1.3-1.976,2.721,2.721,0,0,1,.663-.36c2.11-1.049,4.229-2.078,6.333-3.145a1.815,1.815,0,0,1,1.566-.115,2.293,2.293,0,0,0,.313.079L24.94,23.3l.586.18a1.333,1.333,0,0,1,1.024,1.689,1.491,1.491,0,0,1-1.848.652c-1.309-.385-2.608-.8-3.911-1.208a.553.553,0,0,0-.446,0Q17.175,26.189,14,27.758Z" fill="#f2b781"/>
      <path id="Path_759" data-name="Path 759" d="M23.79,21.352H22.1c0-1.375-.01-2.749,0-4.124,0-.274-.1-.326-.343-.319s-.378.005-.374.319c.016,1.375.005,2.75,0,4.124l-.763.016c-.082-.092-.042-.205-.042-.307q0-2.765,0-5.53a1.487,1.487,0,0,1,1.635-1.63c.235,0,.466-.013.7-.02l.873.026Z" fill="#40b198"/>
      <path id="Path_760" data-name="Path 760" d="M25.736,8.3a1.844,1.844,0,0,1,.349,1.645.531.531,0,0,0,0,.116c-.007.2-.02.409-.018.613,0,.164-.067.215-.229.216s-.189-.084-.183-.217c.005-.157-.006-.313,0-.47a.894.894,0,0,0-.42-.788.224.224,0,0,0-.29-.028,2.485,2.485,0,0,1-1.163.335L23.729,9.7V7.076a2.073,2.073,0,0,1,1.879.97Z" fill="#3c3a40"/>
      <path id="Path_761" data-name="Path 761" d="M31.585,9.972a.768.768,0,0,1,.09.175,3.707,3.707,0,0,1,.157,1.894c-.029.161-.052.325-.088.485-.026.115-.065.235-.226.209s-.113-.157-.115-.252a2.3,2.3,0,0,0-.12-.914c-.088-.2-.2-.28-.42-.214a5.383,5.383,0,0,1-1.207.157.085.085,0,0,1-.008-.034q0-.96.005-1.925c0-.42,0-.42-.42-.439a2.16,2.16,0,0,1,2.349.862Z" fill="#c06201"/>
      <path id="Path_762" data-name="Path 762" d="M29.231,9.111c.42.016.42.016.42.439q0,.963-.005,1.925a3.66,3.66,0,0,1-1.213-.145c-.191-.06-.254.015-.335.157a2.048,2.048,0,0,0-.148,1.027c0,.079.034.185-.1.205s-.2-.048-.224-.17l-.1-.514a3.451,3.451,0,0,1,.162-1.969,1.873,1.873,0,0,1,1.545-.955Z" fill="#e47501"/>
      <path id="Path_763" data-name="Path 763" d="M23.737,7.076V9.7a3.434,3.434,0,0,1-1.527-.235l-.745-.637c-.083-.32-.244-.616-.3-.945-.046-.292-.008-.331.259-.245a1.462,1.462,0,0,0,1.211-.126,2.086,2.086,0,0,1,1.1-.431Z" fill="#56535b"/>
      <path id="Path_764" data-name="Path 764" d="M21.463,8.82l.745.637c-.414.3-.353.743-.347,1.168,0,.14.021.272-.2.259-.146-.01-.2-.049-.211-.2a1.688,1.688,0,0,0-.06-.626,4.46,4.46,0,0,1,.071-1.238Z" fill="#3c3a40"/>
      <path id="Path_765" data-name="Path 765" d="M23.787,13.908l-.873-.026.01-.8a2.662,2.662,0,0,0,.862.3l.021.02Z" fill="#fca820"/>
      <path id="Path_766" data-name="Path 766" d="M14,27.758q3.172-1.574,6.343-3.151a.55.55,0,0,1,.446,0c1.3.406,2.6.824,3.911,1.208a1.491,1.491,0,0,0,1.848-.652l5.6-2.774a2.027,2.027,0,0,1,1.331-.218,1.516,1.516,0,0,1,1.08,2.248,1.915,1.915,0,0,1-.868.84q-3.38,1.681-6.756,3.34a6.672,6.672,0,0,1-1.2.452,3.375,3.375,0,0,1-1.958,0c-.213-.068-.436-.106-.652-.164a2.153,2.153,0,0,0-1.612.176C20.28,29.7,19.037,30.3,17.8,30.914c-.085.042-.189.06-.235.161a14.688,14.688,0,0,1-3.452-3.142A1.552,1.552,0,0,1,14,27.758Z" fill="#f8bb83"/>
      <path id="Path_767" data-name="Path 767" d="M28.1,13.9a3.49,3.49,0,0,0,.77.85,5.488,5.488,0,0,1-.031.744c-.8,0-1.6,0-2.4-.006-.185,0-.26.044-.252.244.016.448.011.9.015,1.345,0,1.32-.016,2.645,0,3.968,0,.278-.084.336-.341.329-.69-.02-1.38-.013-2.071-.016V13.908Z" fill="#2e8572"/>
      <path id="Path_768" data-name="Path 768" d="M26.2,17.071c0-.448,0-.9-.015-1.345-.008-.2.067-.246.252-.244.8.01,1.6.005,2.4.006l.814.013q0,3.041-.005,6.082c-.663,0-1.327,0-1.989.011-.205,0-.264-.06-.262-.262.008-1.307,0-2.614.012-3.92,0-.287-.079-.375-.356-.349S26.487,17.071,26.2,17.071Z" fill="#d8d8da"/>
      <path id="Path_769" data-name="Path 769" d="M32.64,20.667a.66.66,0,0,0-.882-.013q0-.991-.005-1.984c0-.093.039-.227-.067-.265a.94.94,0,0,0-.575-.006c-.169.052-.1.235-.106.36C31,19.7,31,20.649,30.995,21.593l-1.349-.006q0-3.041.005-6.082a.276.276,0,0,0,.008-.051l.811-.006c.338.047.68-.013,1.02.05a1.363,1.363,0,0,1,1.15,1.342C32.64,18.116,32.636,19.391,32.64,20.667Z" fill="#adabb2"/>
      <path id="Path_770" data-name="Path 770" d="M21.386,21.352c0-1.375.012-2.749,0-4.124,0-.313.147-.313.374-.319s.346.046.343.319c-.013,1.375,0,2.75,0,4.124Z" fill="#2e8572"/>
      <path id="Path_771" data-name="Path 771" d="M31.756,18.671q0,.992.005,1.984a.66.66,0,0,0-.06.936H31q0-1.415.011-2.833c0-.127-.064-.307.106-.36a.94.94,0,0,1,.575.006C31.793,18.444,31.756,18.578,31.756,18.671Z" fill="#7b7a82"/>
      <path id="Path_772" data-name="Path 772" d="M29.662,15.452c0-.138,0-.275-.005-.413h0a1.952,1.952,0,0,0,.81-.293q0,.35.006.7Z" fill="#fca820"/>
      <path id="Path_773" data-name="Path 773" d="M23.806,13.4a2.957,2.957,0,0,0,.854-.3l.014.8-.884,0C23.787,13.754,23.806,13.56,23.806,13.4Z" fill="#e47501"/>
      <path id="Path_774" data-name="Path 774" d="M28.871,14.746a3.343,3.343,0,0,0,.783.293c0,.138,0,.275.005.413a.277.277,0,0,1-.008.051l-.814-.013a5.247,5.247,0,0,0,.034-.744Z" fill="#fdc373"/>
      <path id="Path_775" data-name="Path 775" d="M21.863,11.81h0" fill="#fdc373"/>
      <path id="Path_776" data-name="Path 776" d="M21.52,11.446c.255-.029.292.176.344.365l.052.11a3.941,3.941,0,0,0,1.007,1.159,2.662,2.662,0,0,0,.862.3q.005-.643.013-1.286V10.645l-.006-.925-.034-.029a3.37,3.37,0,0,1-1.547-.235c-.414.3-.353.743-.347,1.168,0,.139.021.272-.2.259-.146-.01-.2-.049-.211-.2a1.688,1.688,0,0,0-.06-.626.858.858,0,0,0,0,1.345.079.079,0,0,0,.019.013l.034.017a.142.142,0,0,0,.076.01Z" fill="#fdc373"/>
      <path id="Path_777" data-name="Path 777" d="M23.795,10.645V12.1l-.013,1.285.021.02a2.957,2.957,0,0,0,.854-.3,3.74,3.74,0,0,0,1.129-1.524c.038-.1.111-.11.2-.124a.485.485,0,0,0,.449-.428c.047-.3.153-.617-.12-.878a.254.254,0,0,0-.235-.089c-.007.2-.02.409-.018.613,0,.164-.067.215-.229.216s-.189-.084-.183-.217c.005-.157-.006-.313,0-.47a.894.894,0,0,0-.42-.788.224.224,0,0,0-.29-.028,2.485,2.485,0,0,1-1.163.335l.005.922" fill="#fca820"/>
      <path id="Path_778" data-name="Path 778" d="M29.664,12.174c0-.221-.005-.444-.008-.665a.085.085,0,0,1-.008-.034,3.66,3.66,0,0,1-1.213-.145c-.191-.06-.254.015-.335.157a2.048,2.048,0,0,0-.148,1.027c0,.079.034.185-.1.205s-.2-.048-.224-.17l-.1-.514a.791.791,0,0,0-.1,1.133.313.313,0,0,0,.175.091c.2-.01.263.111.322.265.048.126.12.244.18.367a3.49,3.49,0,0,0,.77.85,3.343,3.343,0,0,0,.783.293h0q.007-.715.015-1.429T29.664,12.174Z" fill="#fdd9a8"/>
      <path id="Path_779" data-name="Path 779" d="M29.672,13.61q-.007.714-.015,1.429a1.952,1.952,0,0,0,.81-.293,2.988,2.988,0,0,0,.973-1.253c.048-.112.092-.2.24-.213.3-.029.392-.263.416-.518.028-.277.087-.578-.265-.72-.029.161-.052.325-.088.485-.026.115-.065.235-.226.209s-.113-.157-.115-.252a2.3,2.3,0,0,0-.12-.914c-.088-.2-.2-.28-.42-.214a5.383,5.383,0,0,1-1.207.157c0,.221,0,.444.008.665Z" fill="#fdc373"/>
      <circle id="Ellipse_4" data-name="Ellipse 4" cx="0.814" cy="0.814" r="0.814" transform="translate(31.38 20.336)" fill="#fff"/>
      <path id="Path_780" data-name="Path 780" d="M32.75,21.087v.245h-.328V21.7h-.266v-.364h-.329v-.245h.329v-.364h.266v.364Z" transform="translate(-0.095 -0.1)" fill="#2e8572"/>
    </g>
  </g>
</svg>
